<?xml version="1.0" encoding="UTF-8" standalone="no"?>
<!DOCTYPE svg  PUBLIC '-//W3C//DTD SVG 1.1//EN'  'http://www.w3.org/Graphics/SVG/1.1/DTD/svg11.dtd'>
<svg xmlns="http://www.w3.org/2000/svg" version="1.1">
<defs>
<font id="CourierUnicode" horiz-adv-x="1229">
<font-face x-height="866" underline-position="-603" font-family="Courier Unicode" units-per-em="2048" ascent="1638" underline-thickness="84" descent="-410" font-weight="400" cap-height="1170" bbox="-27 -561 1256 1603" unicode-range="U+0020-0491" panose-1="2 7 3 0 2 2 5 2 4 4"/>
<missing-glyph/>
<glyph unicode=" " glyph-name="space"/>
<glyph unicode="!" d="M695 1170l-38 -678q-3 -58 -42 -58q-40 0 -43 58l-39 713q-4 80 82 80q81 0 81 -81q0 -16 -1 -34zM595 178h39q43 0 73.5 -30.5t30.5 -73.5t-30.5 -73.5t-73.5 -30.5h-39q-43 0 -73.5 30t-30.5 73q0 44 30 74.5t74 30.5z" glyph-name="exclam"/>
<glyph unicode='&quot;' d="M266 1234h266l-70 -486q-10 -69 -63 -69t-63 69zM695 1234h266l-70 -486q-10 -69 -62 -69q-53 0 -63 69z" glyph-name="quotedbl"/>
<glyph unicode="#" d="M800 740l-18 -264h161q56 0 56 -42t-56 -42h-167l-33 -468q-4 -54 -42 -54l-17 4q-25 15 -25 41v15l33 462h-190l-32 -468q-4 -54 -42 -54l-18 4q-27 16 -25 41l1 15l32 462h-175q-56 0 -56 42t56 42h181l18 264h-156q-57 0 -57 42t57 42h162l33 468q4 54 42 54l18 -4 q26 -17 25 -40l-1 -16l-32 -462h189l33 468q4 54 42 54l17 -4q27 -17 26 -40l-1 -16l-33 -462h179q56 0 56 -42t-56 -42h-185zM716 740h-189l-19 -264h190z" glyph-name="numbersign"/>
<glyph unicode="$" d="M571 1198v106q0 57 42 57t42 -57v-106q116 -10 216 -77q2 49 42 49q43 0 43 -56v-125q0 -56 -43 -56q-27 0 -42 45q-18 57 -62 86q-81 54 -193 54q-101 0 -177 -56q-83 -62 -83 -159q0 -83 65 -127q49 -33 200 -63q82 -16 220 -56q159 -72 159 -240q0 -135 -109 -218 q-93 -72 -236 -86v-247q0 -57 -42 -57t-42 57v247q-154 10 -259 100q0 -78 -42 -78t-42 56v164q0 57 42 57q18 0 31 -13q8 -8 11 -40q8 -79 120 -126q90 -38 181 -38q115 0 201 52q102 62 102 171q0 119 -124 170q-38 15 -176 42q-163 31 -233 74q-112 68 -112 200 q0 121 92 203q84 76 208 91z" glyph-name="dollar"/>
<glyph unicode="%" d="M742 1016q0 -110 -73 -185t-183 -75t-183 74.5t-73 185.5t72.5 185t183.5 74t183.5 -74t72.5 -185zM682 1016q0 84 -56 141.5t-140 57.5t-140 -57.5t-56 -141.5t56 -141.5t140 -57.5t140 57.5t56 141.5zM1014 725l-778 -253q-12 -4 -21 -4q-28 0 -28 30q0 22 30 32 l778 253q12 4 22 4q27 0 27 -30q0 -22 -30 -32zM1001 235q0 -111 -73 -185t-184 -74q-110 0 -183 74.5t-73 184.5q0 111 73 185.5t183 74.5q111 0 184 -74.5t73 -185.5zM940 235q0 85 -56 142t-140 57t-140 -57.5t-56 -141.5t56.5 -141.5t139.5 -57.5q84 0 140 57.5 t56 141.5z" glyph-name="percent"/>
<glyph unicode="&amp;" d="M852 0l-64 99q-90 -132 -232 -132q-132 0 -219 99q-83 95 -83 228q0 111 62 191t169 111l-68 111q-35 57 -35 123q0 104 75.5 176t179.5 72q70 0 136 -41q43 22 53 22q42 0 42 -43q0 -24 -35 -43l-65 -35q-61 55 -130 55q-68 0 -120 -48.5t-52 -116.5q0 -65 90 -208 l232 -369q61 115 96 266h82q56 0 56 -42q0 -29 -25 -39q-10 -4 -49 -4q-48 -169 -110 -262l57 -86h71q56 0 56 -42t-56 -42h-114zM521 522q-84 -20 -133.5 -81t-49.5 -147q0 -95 59 -167q63 -76 157 -76q112 0 185 126z" glyph-name="ampersand"/>
<glyph unicode="&apos;" d="M481 1255h266l-70 -525q-10 -75 -63 -75t-63 75z" glyph-name="quotesingle"/>
<glyph unicode="(" d="M605 498q0 254 145 542q85 169 124 204q12 11 26 11q43 0 43 -41q0 -9 -7 -22q-204 -373 -204 -694q0 -323 204 -694q7 -13 7 -22q0 -42 -43 -42q-14 0 -26 11q-53 49 -137 232q-77 167 -100 259q-32 127 -32 256z" glyph-name="parenleft"/>
<glyph unicode=")" d="M639 497q0 -253 -145 -542q-83 -166 -124 -203q-13 -12 -26 -12q-43 0 -43 42q0 9 7 22q204 371 204 693t-204 695q-7 13 -7 22q0 41 43 41q14 0 26 -11q53 -49 137 -232q77 -167 100 -259q32 -127 32 -256z" glyph-name="parenright"/>
<glyph unicode="*" d="M568 911v287q0 57 43 57q42 0 42 -57v-287l273 89q18 6 29 6q40 0 40 -42q0 -31 -43 -45l-273 -89l169 -232q16 -22 16 -36q0 -43 -42 -43q-22 0 -43 29l-169 233l-169 -233q-21 -29 -42 -29q-43 0 -43 43q0 13 17 36l169 232l-274 90q-42 14 -42 44q0 42 39 42 q12 0 30 -6z" glyph-name="asterisk"/>
<glyph unicode="+" d="M657 543v-420q0 -56 -43 -56q-42 0 -42 56v420h-372q-56 0 -56 42t56 42h372v418q0 56 43 56q42 0 42 -56v-418h372q56 0 56 -42t-56 -42h-372z" glyph-name="plus"/>
<glyph unicode="," d="M448 302h273l-297 -552q-27 -50 -65 -50q-60 0 -60 60q0 11 3 22z" glyph-name="comma"/>
<glyph unicode="." d="M597 241h36q56 0 96 -39.5t40 -95.5q0 -57 -39.5 -96.5t-96.5 -39.5h-36q-56 0 -96 39.5t-40 95.5q0 57 39.5 96.5t96.5 39.5z" glyph-name="period"/>
<glyph unicode="/" d="M992 1316l-676 -1448q-17 -37 -44 -37q-42 0 -42 40q0 12 10 33l675 1448q17 37 45 37q42 0 42 -40q0 -12 -10 -33z" glyph-name="slash"/>
<glyph unicode="0" d="M1000 731v-208q0 -271 -129 -429q-101 -124 -255 -124q-272 0 -364 352q-23 88 -23 201v208q0 272 129 430q101 124 255 124q273 0 365 -352q22 -84 22 -202zM916 720q0 229 -109 385q-66 95 -193 95q-155 0 -237 -172q-64 -134 -64 -308v-185q0 -230 110 -386 q67 -95 193 -95q154 0 236 173q64 135 64 308v185z" glyph-name="zero"/>
<glyph unicode="1" d="M656 1272v-1188h288q56 0 56 -42t-56 -42h-660q-56 0 -56 42t56 42h288v1072l-274 -86q-19 -6 -29 -6q-40 0 -40 42q0 15 10 28q10 10 33 17z" glyph-name="one"/>
<glyph unicode="2" d="M253 84h645v33q0 56 43 56q42 0 42 -56v-117h-812v124q252 226 498 468q85 84 117 119q75 84 96 136q15 38 15 79q0 116 -92 196q-88 78 -205 78q-105 0 -190 -59q-89 -61 -115 -160q-11 -41 -43 -41q-40 0 -40 39q0 69 68 151q128 155 319 155q153 0 266 -101 q117 -104 117 -255q0 -107 -83 -212q-44 -55 -164 -174q-299 -295 -482 -453v-6z" glyph-name="two"/>
<glyph unicode="3" d="M787 683q105 -47 169 -131q69 -90 69 -200q0 -169 -132 -279q-125 -103 -297 -103q-90 0 -205 39q-126 43 -181 101q-15 16 -15 34q0 40 39 40q16 0 36 -15q155 -115 328 -115q133 0 234 79q109 86 109 216q0 84 -56 157q-51 67 -132 104q-89 41 -184 41q-56 0 -56 42 q0 43 50 42l72 -1q105 -1 180 60q80 66 80 169q0 109 -87 176q-79 62 -191 62q-184 0 -277 -112q-24 -29 -44 -29q-41 0 -41 39q0 40 87 101q121 85 275 85q149 0 253 -86q110 -91 110 -237q0 -188 -193 -279z" glyph-name="three"/>
<glyph unicode="4" d="M771 351h-557v97l467 807h175v-820h70q57 0 57 -42t-57 -42h-70v-267h70q57 0 57 -42t-57 -42h-312q-57 0 -57 42t57 42h157v267zM771 435v735h-44l-425 -735h469z" glyph-name="four"/>
<glyph unicode="5" d="M383 1170v-411q148 62 271 62q169 0 272 -119q99 -113 99 -284q0 -194 -112 -319q-116 -129 -308 -129q-203 0 -371 145q-38 33 -38 55q0 43 40 43q17 0 36 -18q151 -141 329 -141q157 0 250 107q89 101 89 261q0 137 -78 224q-81 91 -216 91q-130 0 -262 -69 q-31 -16 -45 -16q-40 0 -40 46v557h586q56 0 56 -43q0 -42 -56 -42h-502z" glyph-name="five"/>
<glyph unicode="6" d="M364 531q153 225 344 225q151 0 249 -120q93 -113 93 -267q0 -163 -96 -277q-101 -122 -261 -122q-246 0 -352 273q-67 173 -67 383q0 267 169 459q176 200 439 200q84 0 140 -34q24 -15 24 -40q0 -41 -39 -41q-11 0 -31 10q-39 20 -102 20q-218 0 -370 -176 q-146 -169 -146 -390q0 -33 6 -103zM383 392q71 -338 312 -338q126 0 202 97q69 89 69 218q0 119 -70 207q-75 96 -191 96q-97 0 -187 -83q-60 -55 -135 -197z" glyph-name="six"/>
<glyph unicode="7" d="M897 1132v38h-602v-74q0 -56 -42 -56t-42 56v159h771v-134l-338 -1080q-13 -43 -44 -43q-42 0 -42 40q0 9 6 28z" glyph-name="seven"/>
<glyph unicode="8" d="M787 651q212 -103 212 -314q0 -158 -112.5 -262.5t-271.5 -104.5t-270 103q-114 106 -114 264q0 210 213 314q-192 111 -192 289q0 147 109 248q105 97 254 97q150 0 255 -97q108 -100 108 -248q0 -97 -58 -178q-42 -59 -133 -111zM892 937q0 116 -80.5 189.5 t-197.5 73.5q-114 0 -194 -73q-83 -76 -83 -189q0 -109 86 -179q80 -66 191 -66q110 0 191 66q87 70 87 178zM915 335q0 122 -90 200q-87 75 -210 75q-121 0 -208 -76q-92 -79 -92 -198q0 -122 90 -203q86 -79 210 -79t210 78q90 80 90 203z" glyph-name="eight"/>
<glyph unicode="9" d="M959 710q-131 -231 -338 -231q-200 0 -298 197q-48 96 -48 202q0 164 92 281q99 126 259 126q247 0 354 -277q67 -173 67 -402q0 -177 -57 -296q-87 -181 -277 -277q-125 -63 -262 -63q-91 0 -147 34q-26 16 -26 40q0 40 41 40q12 0 35 -11q39 -19 90 -19q227 0 375 156 q144 154 144 382q0 42 -4 118zM943 850q-41 158 -98 237q-81 113 -217 113q-123 0 -199 -102q-70 -92 -70 -219q0 -124 69 -215q75 -101 195 -101q125 0 225 128q32 41 95 159z" glyph-name="nine"/>
<glyph unicode=":" d="M597 866h36q56 0 96 -39.5t40 -95.5q0 -57 -39.5 -97t-96.5 -40h-36q-56 0 -96 39.5t-40 95.5q0 57 39.5 97t96.5 40zM597 241h36q56 0 96 -39.5t40 -95.5q0 -57 -39.5 -96.5t-96.5 -39.5h-36q-56 0 -96 39.5t-40 95.5q0 57 39.5 96.5t96.5 39.5z" glyph-name="colon"/>
<glyph unicode=";" d="M596 866h37q56 0 95.5 -39.5t39.5 -95.5q0 -57 -39 -97t-96 -40h-37q-56 0 -95.5 39.5t-39.5 95.5q0 57 39 97t96 40zM450 302h264l-283 -464q-32 -52 -63 -52q-56 0 -56 51q0 11 6 31z" glyph-name="semicolon"/>
<glyph unicode="&lt;" d="M98 583l908 506q22 12 33 12q42 0 42 -42q0 -25 -34 -44l-778 -432l777 -432q34 -19 34 -44q0 -42 -42 -42q-11 0 -33 12z" glyph-name="less"/>
<glyph unicode="=" d="M1073 695h-916q-56 0 -56 43q0 42 56 42h916q56 0 56 -43q0 -42 -56 -42zM1073 394h-916q-56 0 -56 42t56 42h916q56 0 56 -42t-56 -42z" glyph-name="equal"/>
<glyph unicode="&gt;" d="M1131 583l-908 -506q-22 -12 -33 -12q-42 0 -42 42q0 25 34 44l778 432l-777 432q-34 19 -34 44q0 42 42 42q11 0 33 -12z" glyph-name="greater"/>
<glyph unicode="?" d="M660 514v-85q0 -56 -42 -56q-43 0 -43 56v141q218 81 299 162q45 45 45 113q0 122 -87 198q-82 73 -206 73q-122 0 -267 -71v-86q0 -56 -42 -56t-42 56v141q159 70 202 81q75 19 156 19q164 0 265 -94q105 -96 105 -259q0 -127 -115 -215q-63 -48 -228 -118zM574 178h84 q44 0 74.5 -30t30.5 -74q0 -43 -31 -73.5t-74 -30.5h-84q-43 0 -73.5 30t-30.5 73q0 44 30 74.5t74 30.5z" glyph-name="question"/>
<glyph unicode="@" d="M859 302v11q-50 -8 -85 -8q-119 0 -198 69q-82 73 -82 191q0 145 114 227q101 73 251 73v97q0 108 -65 179t-173 71q-131 0 -205 -97q-117 -153 -117 -371v-331q0 -178 75 -305q91 -154 256 -154q150 0 225 71q17 16 33 16q41 0 41 -40q0 -32 -60 -70q-96 -61 -251 -61 q-282 0 -380 350q-23 82 -23 193v336q0 255 136 418q109 130 266 130q175 0 273 -149q53 -81 53 -186v-576q40 -4 40 -41q0 -43 -56 -43h-68zM859 782q-110 -1 -189 -52q-92 -59 -92 -163q0 -86 62 -134q56 -44 145 -44q29 0 74 9v384z" glyph-name="at"/>
<glyph unicode="A" d="M891 391h-552l-113 -307h161q56 0 56 -42t-56 -42h-314q-56 0 -56 42t56 42h65l371 1002h-248q-56 0 -56 42t56 42h423l410 -1086h65q56 0 56 -42t-56 -42h-313q-57 0 -57 42t57 42h160zM859 475l-232 611h-31l-225 -611h488z" glyph-name="A"/>
<glyph unicode="B" d="M256 84v1002h-113q-56 0 -56 42t56 42h528q144 0 245 -78q109 -85 109 -225q0 -154 -165 -249q253 -91 253 -297q0 -175 -162 -272q-82 -49 -180 -49h-628q-56 0 -56 42t56 42h113zM340 650h297q195 0 269 116q34 53 34 108q0 97 -88 158q-77 54 -179 54h-333v-436z M340 84h425q159 0 232 125q31 53 31 110q0 72 -51 132q-46 55 -117 83q-79 31 -218 31h-302v-481z" glyph-name="B"/>
<glyph unicode="C" d="M984 1055v59q0 56 42 56t42 -56v-233q0 -57 -42 -57q-39 0 -42 51q-5 84 -91 149q-117 89 -264 89q-96 0 -183 -43q-65 -32 -102 -76q-133 -157 -133 -331v-147q0 -188 132.5 -326.5t319.5 -138.5q201 0 359 189q18 21 38 21q40 0 40 -39q0 -22 -43 -70 q-166 -185 -392 -185q-243 0 -419 220q-119 149 -119 317v171q0 135 68.5 260.5t182 193.5t248.5 68q208 0 358 -142z" glyph-name="C"/>
<glyph unicode="D" d="M285 84v1002h-71q-56 0 -56 42t56 42h452q208 0 327 -144q149 -180 149 -383v-116q0 -295 -247 -461q-98 -66 -229 -66h-452q-56 0 -56 42t56 42h71zM369 84h305q106 0 201 70q89 65 137 165q46 96 46 190v152q0 78 -25 139q-36 89 -102 169q-96 117 -257 117h-305v-1002 z" glyph-name="D"/>
<glyph unicode="E" d="M341 565v-481h646v248q0 56 42 56t42 -56v-332h-927q-56 0 -56 42t56 42h113v1002h-113q-56 0 -56 42t56 42h883v-289q0 -56 -42 -56t-42 56v205h-602v-437h301v95q0 56 43 56q42 0 42 -56v-274q0 -56 -42 -56q-43 0 -43 56v95h-301z" glyph-name="E"/>
<glyph unicode="F" d="M412 565v-481h288q56 0 56 -42t-56 -42h-485q-56 0 -56 42t56 42h113v1002h-113q-56 0 -56 42t56 42h925v-289q0 -56 -42 -56q-43 0 -43 56v205h-643v-437h301v95q0 56 43 56q42 0 42 -56v-274q0 -56 -42 -56q-43 0 -43 56v95h-301z" glyph-name="F"/>
<glyph unicode="G" d="M1071 434v-360q-194 -107 -382 -107q-251 0 -404 143q-157 147 -157 396v154q0 141 68 268q70 131 188.5 200t258.5 69q203 0 343 -111q0 84 43 84q42 0 42 -56v-190q0 -56 -42 -56q-38 0 -41 52q-6 94 -130 149q-100 44 -208 44q-244 0 -384 -243q-54 -94 -54 -211v-153 q0 -217 134 -338q128 -117 347 -117q136 0 293 72v311h-289q-56 0 -56 42q0 43 56 43l404 -1q56 0 56 -42q0 -29 -26 -38q-11 -4 -60 -4z" glyph-name="G"/>
<glyph unicode="H" d="M899 566h-557v-482h113q56 0 56 -42t-56 -42h-292q-56 0 -56 42t56 42h95v1002h-52q-57 0 -57 42t57 42h249q56 0 56 -42t-56 -42h-113v-436h557v436h-112q-56 0 -56 42t56 42h249q57 0 57 -42t-57 -42h-52v-1002h95q56 0 56 -42t-56 -42h-292q-56 0 -56 42t56 42h112 v482z" glyph-name="H"/>
<glyph unicode="I" d="M657 1086v-1002h288q56 0 56 -42t-56 -42h-660q-56 0 -56 42t56 42h288v1002h-288q-56 0 -56 42t56 42h660q56 0 56 -42t-56 -42h-288z" glyph-name="I"/>
<glyph unicode="J" d="M943 1086v-742q0 -159 -113 -268t-273 -109q-183 0 -386 186v310q0 56 42 56q43 0 43 -56l-1 -270q154 -142 302 -142q166 0 256 141q45 70 45 152v742h-329q-57 0 -57 42t57 42h614q56 0 56 -42t-56 -42h-200z" glyph-name="J"/>
<glyph unicode="K" d="M342 458v-374h155q57 0 57 -42t-57 -42h-352q-56 0 -56 42t56 42h113v1002h-113q-56 0 -56 42t56 42h352q57 0 57 -42t-57 -42h-155v-517l580 517h-92q-57 0 -57 42t57 42h247q56 0 56 -42t-56 -42h-34l-462 -413q189 -77 302 -284q39 -71 132 -305h105q57 0 57 -42 t-57 -42h-162q-100 275 -154 365q-113 189 -293 245z" glyph-name="K"/>
<glyph unicode="L" d="M469 1086v-1002h558v334q0 56 43 56q42 0 42 -56v-418h-928q-56 0 -56 42t56 42h200v1002h-200q-56 0 -56 42t56 42h485q56 0 56 -42t-56 -42h-200z" glyph-name="L"/>
<glyph unicode="M" d="M670 351h-96l-323 735h-16v-1002h155q56 0 56 -42t-56 -42h-310q-56 0 -56 42t56 42h71v1002h-53q-56 0 -56 42t56 42h206l318 -724l313 724h206q57 0 57 -42t-57 -42h-52v-1002h70q57 0 57 -42t-57 -42h-309q-57 0 -57 42t57 42h155v1002h-18z" glyph-name="M"/>
<glyph unicode="N" d="M1026 0h-108l-619 1047v-963h155q57 0 57 -42t-57 -42h-309q-57 0 -57 42t57 42h70v1002h-113q-56 0 -56 42t56 42h220l620 -1049v965h-155q-56 0 -56 42t56 42h310q56 0 56 -42t-56 -42h-71v-1086z" glyph-name="N"/>
<glyph unicode="O" d="M1128 582q0 -162 -62 -300q-67 -151 -193 -235q-120 -80 -257 -80q-231 0 -378 197q-134 179 -134 418t133 418q147 197 379 197q145 0 265 -86q114 -81 179 -217q68 -142 68 -312zM1043 582q0 203 -110 358q-123 173 -317 173t-317 -174q-111 -157 -111 -357 q0 -201 111 -357q124 -174 317 -174q194 0 317 173q110 155 110 358z" glyph-name="O"/>
<glyph unicode="P" d="M432 480v-396h288q56 0 56 -42t-56 -42h-485q-56 0 -56 42t56 42h113v1002h-113q-56 0 -56 42t56 42h488q159 0 271 -89q121 -97 121 -252q0 -158 -121 -248q-75 -56 -155 -82q-58 -19 -144 -19h-263zM432 564h268q84 0 165 37q88 40 129 106q37 59 37 122q0 115 -94 189 q-87 68 -206 68h-299v-522z" glyph-name="P"/>
<glyph unicode="Q" d="M626 -33l-112 -84q83 17 137 17q89 0 173 -32q61 -23 93 -23q57 0 129 47q27 18 40 18q41 0 41 -42q0 -15 -10 -26q-21 -23 -95 -56q-56 -25 -110 -25q-42 0 -128.5 27t-130.5 27q-48 0 -121 -12q-99 -16 -162 -34q-18 -5 -29 -5q-41 0 -41 44q0 19 23 36l187 135 q-190 47 -303 230q-103 167 -103 373q0 239 133 418q147 197 379 197t379 -197q133 -179 133 -418q0 -234 -131 -414q-144 -198 -371 -201zM1043 582q0 203 -110 358q-123 173 -317 173t-317 -174q-111 -157 -111 -357q0 -201 111 -357q124 -174 317 -174q194 0 317 173 q110 155 110 358z" glyph-name="Q"/>
<glyph unicode="R" d="M341 522v-438h155q57 0 57 -42t-57 -42h-352q-56 0 -56 42t56 42h113v1002h-113q-56 0 -56 42t56 42h508q145 0 255 -88q117 -94 117 -236q0 -204 -289 -302q111 -77 205 -209q40 -57 154 -251h64q56 0 56 -42t-56 -42h-112q-122 218 -180 297q-116 158 -258 225h-267z M341 606h229q229 0 330 134q40 53 40 110q0 100 -98 171q-89 65 -192 65h-309v-480z" glyph-name="R"/>
<glyph unicode="S" d="M915 1086v28q0 56 42 56t42 -56v-214q0 -56 -42 -56q-39 0 -42 51q-6 102 -105 164q-87 54 -195 54q-120 0 -205 -59q-98 -67 -98 -181q0 -112 108 -171q67 -37 207 -60q180 -30 241 -57q176 -79 176 -271q0 -166 -134 -262q-119 -85 -291 -85q-219 0 -350 137v-48 q0 -56 -42 -56t-42 56v232q0 57 42 57q39 0 42 -51q6 -117 125 -185q101 -58 225 -58q134 0 230 64q111 74 111 202q0 138 -139 199q-50 22 -200 47q-179 30 -266 83q-127 78 -127 229q0 152 119 241q108 81 265 81q176 0 303 -111z" glyph-name="S"/>
<glyph unicode="T" d="M656 1086v-1002h218q56 0 56 -42t-56 -42h-521q-56 0 -56 42t56 42h218v1002h-344v-291q0 -57 -42 -57t-42 57v375h941v-375q0 -57 -42 -57t-42 57v291h-344z" glyph-name="T"/>
<glyph unicode="U" d="M1021 1086v-702q0 -177 -113.5 -297t-289.5 -120q-226 0 -347 198q-61 100 -61 219v702h-71q-56 0 -56 42t56 42h310q56 0 56 -42t-56 -42h-155v-702q0 -136 92 -233q93 -100 228 -100q171 0 272 155q51 78 51 178v702h-155q-56 0 -56 42t56 42h310q56 0 56 -42t-56 -42 h-71z" glyph-name="U"/>
<glyph unicode="V" d="M677 0h-117l-423 1086h-65q-56 0 -56 42q0 28 23 38q9 4 33 4h313q37 0 50 -19q6 -11 6 -23q0 -26 -23 -37q-10 -5 -33 -5h-161l390 -1002h6l385 1002h-160q-57 0 -57 42q0 26 24 38q8 4 33 4h312q38 0 51 -19q6 -11 6 -23q0 -26 -23 -37q-10 -5 -34 -5h-64z" glyph-name="V"/>
<glyph unicode="W" d="M983 0h-132l-238 831l-233 -831h-132l-124 1086h-31q-56 0 -56 42t56 42h312q57 0 57 -42t-57 -42h-196l111 -990l227 815h129l233 -815l109 990h-197q-56 0 -56 42t56 42h310q57 0 57 -42t-57 -42h-31z" glyph-name="W"/>
<glyph unicode="X" d="M665 599l399 -515h32q56 0 56 -42t-56 -42h-270q-56 0 -56 42t56 42h134l-347 446l-343 -446h134q56 0 56 -42t-56 -42h-268q-56 0 -56 42q0 31 26 39q10 3 61 3l394 515l-376 487h-31q-56 0 -56 42t56 42h229q57 0 57 -42t-57 -42h-94l324 -419l322 419h-94 q-57 0 -57 42t57 42h230q56 0 56 -42t-56 -42h-32z" glyph-name="X"/>
<glyph unicode="Y" d="M659 528v-444h218q56 0 56 -42t-56 -42h-521q-56 0 -56 42t56 42h218v444l-369 558h-50q-56 0 -56 42t56 42h231q56 0 56 -42t-56 -42h-83l314 -473l307 473h-82q-57 0 -57 42t57 42h230q56 0 56 -42t-56 -42h-50z" glyph-name="Y"/>
<glyph unicode="Z" d="M1022 0h-809v122l682 964h-559v-247q0 -57 -43 -57q-42 0 -42 57v331h725v-119l-682 -967h644v293q0 57 42 57t42 -57v-377z" glyph-name="Z"/>
<glyph unicode="[" d="M657 1170v-1345h204q56 0 56 -42t-56 -42h-288v1514h288q56 0 56 -43q0 -42 -56 -42h-204z" glyph-name="bracketleft"/>
<glyph unicode="\" d="M314 1346l675 -1448q10 -21 10 -32q0 -41 -42 -41q-28 0 -45 37l-675 1449q-10 21 -10 32q0 40 42 40q28 0 45 -37z" glyph-name="backslash"/>
<glyph unicode="]" d="M575 -175v1345h-203q-56 0 -56 42q0 43 56 43h288v-1514h-288q-56 0 -56 42t56 42h203z" glyph-name="bracketright"/>
<glyph unicode="^" d="M614 1279l369 -463q18 -23 18 -37q0 -42 -43 -42q-22 0 -42 26l-302 384l-302 -384q-21 -27 -41 -27q-43 0 -43 43q0 14 18 37z" glyph-name="asciicircum"/>
<glyph unicode="_" d="M1173 -561h-1117q-56 0 -56 42t56 42h1117q56 0 56 -42t-56 -42z" glyph-name="underscore"/>
<glyph unicode="`" d="M525 1309l236 -204l22 -25q3 -5 3 -16q0 -43 -43 -43q-15 0 -38 20l-236 204q-25 22 -25 41q0 43 43 43q15 0 38 -20z" glyph-name="grave"/>
<glyph unicode="a" d="M856 0v121q-183 -154 -391 -154q-133 0 -221 64q-100 72 -100 200q0 156 150 238q120 66 289 66q120 0 273 -31v136q0 90 -88 135q-69 36 -168 36q-97 0 -275 -57q-31 -10 -41 -10q-39 0 -39 42q0 17 10 27q14 15 113 41q159 42 236 42q128 0 225 -62q112 -72 112 -194 v-556h112q57 0 57 -42t-57 -42h-197zM856 418q-115 33 -264 33q-182 0 -286 -79q-78 -59 -78 -141q0 -91 74 -139q63 -41 159 -41q205 0 395 182v185z" glyph-name="a"/>
<glyph unicode="b" d="M298 1255v-557q152 198 367 198q193 0 321 -135q125 -132 125 -326q0 -193 -126 -329q-128 -139 -320 -139q-220 0 -367 198v-165h-197q-56 0 -56 42t56 42h113v1086h-113q-56 0 -56 43q0 42 56 42h197zM1027 431q0 158 -102 268q-105 112 -262 112q-156 0 -260 -111.5 t-104 -268.5t103 -267q105 -113 261 -113q157 0 260.5 111t103.5 269z" glyph-name="b"/>
<glyph unicode="c" d="M965 781v28q0 57 42 57q43 0 43 -57v-190q0 -57 -43 -57q-38 0 -42 50q-8 97 -125 153q-96 46 -204 46q-173 0 -277 -106t-104 -279q0 -170 106.5 -272.5t277.5 -102.5q226 0 383 152q21 20 37 20q40 0 40 -40q0 -43 -101 -109q-163 -107 -363 -107q-205 0 -334.5 126.5 t-129.5 331.5q0 207 131.5 339t338.5 132q193 0 324 -115z" glyph-name="c"/>
<glyph unicode="d" d="M1026 1255v-1171h112q57 0 57 -42t-57 -42h-197v167q-146 -200 -371 -200q-122 0 -223.5 62.5t-159.5 170.5q-61 113 -61 231q0 123 60.5 233t165 171t219.5 61q220 0 370 -200v474h-112q-57 0 -57 43q0 42 57 42h197zM941 431q0 159 -102 268q-105 112 -263 112 t-262 -110.5t-104 -269.5t103 -268q105 -112 263 -112t263 112q102 109 102 268z" glyph-name="d"/>
<glyph unicode="e" d="M1069 413h-856q22 -167 136 -264.5t284 -97.5q221 0 365 113q19 15 33 15q40 0 40 -42q0 -16 -16 -33q-61 -63 -198 -103q-117 -34 -224 -34q-215 0 -358 133q-147 137 -147 351q0 196 139 323q134 122 332 122q214 0 343 -134.5t127 -348.5zM984 498q-25 144 -132 230 q-105 83 -253 83t-252 -84q-107 -85 -133 -229h770z" glyph-name="e"/>
<glyph unicode="f" d="M559 781v-697h369q56 0 56 -42t-56 -42h-657q-56 0 -56 42t56 42h203v697h-182q-56 0 -56 43q0 42 56 42h182v127q0 122 99 195q89 67 215 67q121 0 254 -22q72 -12 72 -48q0 -41 -44 -41q-7 0 -27 3q-150 23 -255 23q-91 0 -155 -42q-74 -48 -74 -135v-127h393 q56 0 56 -43q0 -42 -56 -42h-393z" glyph-name="f"/>
<glyph unicode="g" d="M897 712v154h197q56 0 56 -43q0 -42 -56 -42h-113v-839q0 -213 -218 -308q-46 -20 -123 -20h-238q-56 0 -56 42q0 43 56 43l241 -1q153 -1 232 149q22 42 22 107v252q-135 -185 -348 -185q-181 0 -302.5 128t-121.5 310t121.5 309.5t302.5 127.5q213 0 348 -184zM897 459 q0 149 -98 250.5t-246 101.5t-245.5 -102t-97.5 -250q0 -149 97.5 -251t245.5 -102t246 102t98 251z" glyph-name="g"/>
<glyph unicode="h" d="M338 1255v-517q145 158 318 158q191 0 281 -140q46 -72 46 -151v-521h94q56 0 56 -42t-56 -42h-273q-57 0 -57 42t57 42h94v515q0 102 -75 160q-68 53 -173 53q-92 0 -157 -45q-48 -33 -155 -151v-532h95q56 0 56 -42t-56 -42h-274q-56 0 -56 42t56 42h95v1086h-113 q-56 0 -56 43q0 42 56 42h197z" glyph-name="h"/>
<glyph unicode="i" d="M656 1297v-217h-124v217h124zM659 866v-782h330q57 0 57 -42t-57 -42h-744q-56 0 -56 42t56 42h330v697h-245q-57 0 -57 42q0 43 57 43h329z" glyph-name="i"/>
<glyph unicode="j" d="M735 1297v-217h-124v217h124zM740 781h-499q-56 0 -56 43q0 42 56 42h583v-925q0 -206 -176 -296q-61 -31 -145 -31h-267q-56 0 -56 42q0 43 56 43l265 -1q107 0 173 68t66 175v840z" glyph-name="j"/>
<glyph unicode="k" d="M444 374v-374h-197q-56 0 -56 42t56 42h113v1086h-113q-56 0 -56 43q0 42 56 42h197v-774l357 300h-43q-56 0 -56 42q0 43 56 43h269q57 0 57 -43q0 -42 -57 -42h-97l-328 -274l415 -423h97q57 0 57 -42t-57 -42h-272q-56 0 -56 42t56 42h59l-361 371z" glyph-name="k"/>
<glyph unicode="l" d="M657 1255v-1171h330q57 0 57 -42t-57 -42h-744q-56 0 -56 42t56 42h330v1086h-242q-57 0 -57 43q0 42 57 42h326z" glyph-name="l"/>
<glyph unicode="m" d="M232 866v-85q107 115 215 115q130 0 196 -139q111 139 229 139q90 0 145 -59q71 -77 71 -166v-587h71q56 0 56 -42t-56 -42h-155v663q0 58 -35 101q-37 47 -94 47q-104 0 -213 -170v-557h70q56 0 56 -42t-56 -42h-155v657q0 59 -34 104q-37 50 -94 50q-103 0 -217 -170 v-557h71q56 0 56 -42t-56 -42h-226q-56 0 -56 42t56 42h71v697h-71q-56 0 -56 43q0 42 56 42h155z" glyph-name="m"/>
<glyph unicode="n" d="M343 866v-127q155 157 319 157q186 0 277 -140q45 -69 45 -143v-529h71q56 0 56 -42t-56 -42h-225q-57 0 -57 42t57 42h70v515q0 98 -72 157q-67 55 -167 55q-102 0 -181 -59q-47 -35 -137 -141v-527h95q56 0 56 -42t-56 -42h-274q-56 0 -56 42t56 42h95v697h-71 q-56 0 -56 43q0 42 56 42h155z" glyph-name="n"/>
<glyph unicode="o" d="M1084 431q0 -197 -136 -330.5t-333 -133.5q-199 0 -334.5 132.5t-135.5 331.5q0 198 136 331.5t334 133.5t333.5 -133.5t135.5 -331.5zM999 431q0 163 -111 271.5t-274 108.5t-274 -109t-111 -271t111.5 -271t273.5 -109q163 0 274 109t111 271z" glyph-name="o"/>
<glyph unicode="p" d="M298 866v-153q151 183 364 183q269 0 391 -219q58 -104 58 -218q0 -189 -129 -313.5t-319 -124.5q-225 0 -365 183v-506h204q56 0 56 -42t-56 -42h-401q-56 0 -56 42t56 42h113v1083h-113q-56 0 -56 43q0 42 56 42h197zM1026 459q0 152 -105 252t-258 100 q-152 0 -257 -99q-108 -102 -108 -253q0 -152 106 -252.5t259 -100.5t258 100.5t105 252.5z" glyph-name="p"/>
<glyph unicode="q" d="M940 713v153h197q57 0 57 -43q0 -42 -57 -42h-112v-1083h112q57 0 57 -42t-57 -42h-400q-56 0 -56 42t56 42h203v506q-139 -183 -365 -183q-189 0 -318 125t-129 313q0 190 129 313.5t320 123.5q224 0 363 -183zM940 459q0 152 -105.5 252t-258.5 100t-257 -99 q-107 -101 -107 -253t105.5 -252.5t258.5 -100.5t258.5 100.5t105.5 252.5z" glyph-name="q"/>
<glyph unicode="r" d="M514 866v-212q114 104 181 150q122 83 215 83q48 0 123 -40q81 -43 81 -87t-44 -44q-17 0 -43 26q-61 61 -112 61q-82 0 -216 -101q-53 -40 -185 -158v-460h372q57 0 57 -42t-57 -42h-659q-56 0 -56 41q0 40 56 40h203v700h-155q-56 0 -56 43q0 42 56 42h239z" glyph-name="r"/>
<glyph unicode="s" d="M892 811q0 55 42 55q43 0 43 -57v-144q0 -56 -43 -56q-38 0 -42 47q-6 60 -62 99q-81 56 -217 56q-141 0 -219 -57q-59 -43 -59 -96q0 -60 70 -100q49 -28 182 -43q178 -20 243 -43q192 -68 192 -231q0 -140 -140 -214q-113 -60 -265 -60q-199 0 -326 101q0 -68 -42 -68 t-42 56v173q0 56 42 56q43 0 43 -46q0 -100 135 -156q77 -32 187 -32q113 0 203 39q121 52 121 151q0 155 -319 188q-124 13 -180 28q-189 51 -189 204q0 119 127 184q100 51 232 51q174 0 283 -85z" glyph-name="s"/>
<glyph unicode="t" d="M442 866h456q56 0 56 -43q0 -42 -56 -42h-456v-559q0 -88 75 -133q62 -38 155 -38q77 0 174 23q104 24 164 60q22 13 33 13q40 0 40 -42q0 -47 -168 -99q-126 -39 -237 -39q-135 0 -221 59q-100 67 -100 196v559h-155q-56 0 -56 43q0 42 56 42h155v248q0 56 42 56 q43 0 43 -56v-248z" glyph-name="t"/>
<glyph unicode="u" d="M902 0v123q-172 -156 -372 -156q-123 0 -187 67q-83 88 -83 205v542h-113q-56 0 -56 43q0 42 56 42h197v-627q0 -82 50 -135t132 -53q205 0 376 188v542h-155q-56 0 -56 43q0 42 56 42h239v-782h71q56 0 56 -42t-56 -42h-155z" glyph-name="u"/>
<glyph unicode="v" d="M688 0h-142l-345 781h-86q-56 0 -56 43q0 42 56 42h315q56 0 56 -43q0 -42 -56 -42h-139l308 -697h37l302 697h-140q-56 0 -56 43q0 42 56 42h316q56 0 56 -43q0 -42 -56 -42h-85z" glyph-name="v"/>
<glyph unicode="w" d="M904 0l-104 -1l-185 540l-184 -540l-104 1l-174 781h-41q-56 0 -56 43q0 42 56 42h231q56 0 56 -43q0 -42 -56 -42h-107l149 -666l179 532h100l184 -532l143 666h-106q-57 0 -57 43q0 42 57 42h230q57 0 57 -43q0 -42 -57 -42h-40z" glyph-name="w"/>
<glyph unicode="x" d="M672 453l385 -369q73 0 73 -42t-57 -42h-270q-57 0 -57 42t57 42h139l-327 313l-325 -313h140q56 0 56 -42t-56 -42h-273q-56 0 -56 42q0 29 25 39q8 3 47 3l385 369l-342 328q-70 0 -70 43q0 42 57 42h229q56 0 56 -43q0 -42 -56 -42h-100l283 -273l285 273h-100 q-57 0 -57 43q0 42 57 42h229q56 0 56 -43q0 -28 -24 -38q-10 -4 -46 -4z" glyph-name="x"/>
<glyph unicode="y" d="M620 0l-390 781h-25q-56 0 -56 42q0 28 24 39q9 4 32 4h230q56 0 56 -43q0 -42 -56 -42h-113l343 -689l338 689h-113q-56 0 -56 43q0 42 56 42h229q57 0 57 -43q0 -29 -26 -38q-11 -4 -56 -4l-532 -1083h131q56 0 56 -42t-56 -42h-484q-56 0 -56 42t56 42h263z" glyph-name="y"/>
<glyph unicode="z" d="M982 866v-75l-629 -707h568v116q0 56 42 56q43 0 43 -56l-1 -200h-768v75l626 706h-522v-114q0 -56 -42 -56q-43 0 -43 56v199h726z" glyph-name="z"/>
<glyph unicode="{" d="M566 498q91 -69 91 -179v-359q0 -124 116 -135q53 -5 53 -42q0 -42 -51 -42q-80 0 -132 50q-71 68 -71 168v360q0 53 -31.5 91t-83.5 42.5t-52 45.5q0 40 50 44q117 10 117 134v360q0 92 56.5 155.5t147.5 63.5q50 0 50 -42q0 -18 -13 -30q-9 -10 -41 -13 q-52 -5 -83.5 -43t-31.5 -91v-360q0 -110 -91 -178z" glyph-name="braceleft"/>
<glyph unicode="|" d="M657 1198l-1 -1401q0 -56 -42 -56t-42 56v1401q0 57 42 57q43 0 43 -57z" glyph-name="bar"/>
<glyph unicode="}" d="M664 498q-91 67 -91 178v360q0 53 -31.5 91t-83.5 43q-32 3 -41 12q-13 13 -13 31q0 42 50 42q79 0 132 -51q71 -69 71 -168v-360q0 -54 32.5 -91.5t85.5 -42.5q50 -4 50 -44q0 -41 -50 -45q-54 -5 -86 -42.5t-32 -91.5v-360q0 -90 -56 -153q-58 -66 -147 -66 q-50 0 -50 43q0 31 49 41q120 25 120 136v359q0 111 91 179z" glyph-name="braceright"/>
<glyph unicode="~" d="M1003 668q40 0 40 -40q0 -55 -97 -127q-92 -69 -150 -69q-83 0 -222 131q-93 88 -140 88q-58 0 -151 -107q-37 -43 -56 -43q-40 0 -40 40q0 17 26 49q116 145 219 145q80 0 184 -96q132 -122 174 -122q71 0 151 102q38 49 62 49z" glyph-name="asciitilde"/>
<glyph unicode=" " glyph-name="glyph736"/>
<glyph unicode="¡" d="M634 670h-39q-43 0 -73.5 30.5t-30.5 73.5q0 44 30 74t74 30h39q43 0 73.5 -30t30.5 -73q0 -44 -30 -74.5t-74 -30.5zM535 -274l37 645q3 58 42 58q40 0 43 -58l38 -645q1 -17 1 -35q0 -80 -81 -80q-82 0 -82 82q0 -2 2 33z" glyph-name="exclamdown"/>
<glyph unicode="¢" d="M571 1030v250q0 56 42 56t42 -56v-247q128 -4 218 -75q10 34 41 34q43 0 43 -51v-127q0 -57 -42 -57q-36 0 -42 48q-10 76 -89 115q-64 32 -149 32q-140 0 -230 -82q-93 -84 -93 -223q0 -135 89 -219.5t225 -84.5q155 0 261 87q21 17 37 17q40 0 40 -41q0 -29 -51 -61 q-117 -74 -258 -82v-207q0 -56 -42 -56t-42 56v207q-151 18 -247 124.5t-96 258.5q0 160 110 270q81 81 233 114z" glyph-name="cent"/>
<glyph unicode="£" d="M372 84h519q87 0 95 108q4 47 42 47q43 0 43 -45q0 -78 -48 -134q-50 -60 -127 -60h-669q-56 0 -56 42q0 29 45 42q60 17 81 39q52 54 83 154q28 89 28 174q0 67 -12 116h-216q-56 0 -56 42t56 42h195q-57 177 -57 253q0 125 84.5 211.5t209.5 86.5q73 0 166 -53 q103 -59 103 -121q0 -39 -42 -39q-19 0 -38 25q-80 103 -186 103q-91 0 -151.5 -61t-60.5 -152q0 -45 9 -78q12 -43 49 -175h205q56 0 56 -42t-56 -42h-186q10 -62 10 -121q0 -212 -118 -362z" glyph-name="sterling"/>
<glyph unicode="¤" d="M404 336l-116 -115q-22 -22 -39 -22q-43 0 -43 43q0 17 22 39l116 115q-74 97 -74 212t72 211l-114 114q-22 22 -22 40q0 42 43 42q17 0 39 -22l114 -114q91 73 213 73q120 0 211 -73l114 114q22 22 40 22q42 0 42 -43q0 -17 -22 -39l-114 -114q72 -95 72 -210 q0 -119 -73 -213l115 -115q22 -22 22 -40q0 -42 -43 -42q-17 0 -39 22l-115 115q-96 -72 -211 -72t-210 72zM874 608q0 112 -74 186t-186 74q-111 0 -185 -74.5t-74 -185.5t74 -185t185 -74t185.5 74t74.5 185z" glyph-name="currency"/>
<glyph unicode="¥" d="M657 511v-158h271q41 0 41 -30t-41 -30h-271v-209h179q56 0 56 -42t-56 -42h-443q-56 0 -56 42t56 42h179v209h-271q-40 0 -40 30t40 30h271v158h-271q-40 0 -40 30t40 30h242l-339 515h-50q-56 0 -56 42t56 42h230q56 0 56 -42t-56 -42h-81l311 -472l311 472h-82 q-56 0 -56 42t56 42h228q57 0 57 -42t-57 -42h-48l-340 -515h245q41 0 41 -30t-41 -30h-271z" glyph-name="yen"/>
<glyph unicode="¦" d="M657 1138l-1 -376q0 -88 -6 -98q-14 -19 -36 -19q-33 0 -40 30q-2 8 -2 87v376q0 79 2 87q7 30 40 30q31 0 40 -30q3 -11 3 -87zM657 233l-1 -376q0 -89 -6 -97q-14 -19 -36 -19q-33 0 -40 29q-2 8 -2 87v376q0 79 2 87q7 30 40 30t40 -30q3 -8 3 -87z" glyph-name="brokenbar"/>
<glyph unicode="§" d="M997 1255v-217q0 -40 -29 -40q-31 0 -31 40v156h-350q-76 0 -134 -52.5t-58 -127.5q0 -49 37 -93q56 -67 268 -187l113 -64q124 -70 174 -113q98 -84 98 -173q0 -81 -75 -126q-62 -37 -149 -38q34 -53 34 -107q0 -137 -118 -208q-58 -35 -139 -35h-406v219q0 40 30 40 q31 0 31 -40v-158h344q80 0 137 47q61 51 61 129q0 48 -38 96q-51 64 -233 169l-130 75q-291 168 -291 296q0 80 77 124q60 35 149 40q-34 51 -34 99q0 134 119 211q58 38 128 38h415zM417 849q-14 -3 -34 -3q-180 0 -180 -107q0 -86 273 -245l125 -73q156 -91 213 -146 q10 7 31 7q180 4 180 100q0 98 -236 231l-130 73q-160 90 -242 163z" glyph-name="section"/>
<glyph unicode="¨" d="M482 1147q0 -34 -24 -57.5t-58 -23.5q-33 0 -57 24t-24 57q0 34 23.5 58t57.5 24t58 -24t24 -58zM911 1147q0 -34 -24 -57.5t-58 -23.5t-57.5 23.5t-23.5 57.5t23.5 58t57.5 24t58 -24t24 -58z" glyph-name="dieresis"/>
<glyph unicode="©" d="M1223 584q0 -261 -175.5 -436t-436.5 -175t-436 175t-175 436t175 436.5t436 175.5q262 0 437 -175t175 -437zM1155 584q0 231 -156.5 387.5t-387.5 156.5q-230 0 -387 -157t-157 -387q0 -231 156.5 -387t387.5 -156t387.5 156t156.5 387zM810 862v34q0 32 25 32 q23 0 23 -32v-132q0 -22 -11 -28q-6 -4 -13 -4q-22 0 -24 28q-4 49 -51 85q-66 50 -150 50q-100 0 -158 -63q-78 -85 -78 -192v-83q0 -108 74 -186t181 -78q116 0 204 107q10 12 21 12q23 0 23 -22q0 -51 -100 -100q-89 -44 -146 -44q-173 0 -275 178q-30 52 -30 126v97 q0 123 80 209.5t202 86.5q119 0 203 -81z" glyph-name="copyright"/>
<glyph unicode="ª" d="M759 747v60q-115 -80 -240 -80q-89 0 -151 41q-72 47 -72 132q0 101 104 154q81 41 193 41q70 0 166 -16v66q0 89 -154 89q-59 0 -175 -34q-20 -6 -30 -6q-39 0 -39 39q0 30 79 50q111 28 168 28q87 0 153 -39q79 -46 79 -127v-321h60q50 0 50 -38q0 -39 -50 -39h-141z M759 906l-1 95q-64 17 -157 17q-116 0 -179 -45q-45 -32 -45 -73q0 -96 139 -96q127 0 243 102z" glyph-name="ordfeminine"/>
<glyph unicode="«" d="M99 434l448 410q26 24 44 24q42 0 42 -43q0 -15 -23 -41l-313 -350l313 -349q23 -26 23 -42q0 -42 -42 -42q-19 0 -44 23zM568 434l448 410q26 24 44 24q42 0 42 -43q0 -16 -22 -41l-313 -350l313 -349q22 -25 22 -42q0 -42 -42 -42q-19 0 -44 23z" glyph-name="guillemotleft"/>
<glyph unicode="¬" d="M80 543q-56 0 -56 42t56 42h1005v-504q0 -56 -42 -56q-43 0 -43 56v420h-920z" glyph-name="logicalnot"/>
<glyph unicode="®" d="M1223 584q0 -261 -175.5 -436t-436.5 -175t-436 175t-175 436t175 436.5t436 175.5q262 0 437 -175t175 -437zM1155 584q0 231 -156.5 387.5t-387.5 156.5q-230 0 -387 -157t-157 -387q0 -231 156.5 -387t387.5 -156t387.5 156t156.5 387zM461 549v-248h88q32 0 32 -24 t-32 -24h-200q-32 0 -32 24q0 15 14 22q4 2 18 2h64v567h-64q-32 0 -32 24q0 15 14 22q4 2 18 2h288q83 0 145 -49q66 -54 66 -135q0 -115 -164 -171q86 -57 203 -260h37q32 0 32 -24t-32 -24h-64q-69 124 -102 168q-66 89 -146 128h-151zM461 596h129q73 0 135 32 q75 39 75 107q0 58 -55 97q-49 36 -109 36h-175v-272z" glyph-name="registered"/>
<glyph unicode="¯" d="M1200 1340h-1171q-56 0 -56 43q0 42 56 42h1171q56 0 56 -43q0 -42 -56 -42z" glyph-name="overscore"/>
<glyph unicode="°" d="M337 1214q0 118 79.5 197.5t197.5 79.5q119 0 198.5 -79t79.5 -198t-79.5 -198.5t-198.5 -79.5t-198 79.5t-79 198.5zM446 1214q0 -70 49.5 -119.5t119.5 -49.5q71 0 119.5 49t48.5 120t-48.5 120t-119.5 49q-70 0 -119.5 -49.5t-49.5 -119.5z" glyph-name="degree"/>
<glyph unicode="±" d="M657 676v-420q0 -56 -43 -56q-42 0 -42 56v420h-372q-56 0 -56 42t56 42h372v418q0 56 43 56q42 0 42 -56v-418h372q56 0 56 -42t-56 -42h-372zM968 0h-707q-79 0 -87 2q-30 7 -30 40t30 40q8 3 87 3l707 -1q79 0 87 -2q30 -7 30 -40t-30 -40q-8 -2 -87 -2z" glyph-name="plusminus"/>
<glyph unicode="²" d="M420 673h350q0 27 7 33q11 12 30 12q37 0 37 -35v-67h-503v72q353 277 401 339q28 36 28 69q0 60 -54 98q-48 35 -110 35q-130 0 -169 -109q-9 -24 -36 -24q-36 0 -36 26q0 69 89 119q78 44 152 44q87 0 158 -50q80 -55 80 -138q0 -38 -18 -68q-29 -48 -162 -160 q-165 -139 -244 -196z" glyph-name="twosuperior"/>
<glyph unicode="³" d="M381 972q133 -57 133 -170q0 -93 -90 -151q-78 -50 -175 -50q-57 0 -128 21q-80 23 -114 57q-7 7 -7 17q0 27 34 27q16 0 44 -17q79 -49 171 -49q71 0 127 36q64 41 64 108q0 71 -72 112q-59 33 -136 35q-45 1 -45 29q0 27 43 27q126 0 164 54q19 27 19 56q0 55 -51 87 q-43 28 -101 28q-104 0 -157 -57q-14 -15 -33 -15q-36 0 -36 26q0 9 11 21q74 81 215 81q86 0 151 -41q75 -49 75 -130q0 -99 -106 -142z" glyph-name="threesuperior"/>
<glyph unicode="´" d="M760 1245l-237 -204q-23 -20 -38 -20q-42 0 -42 43q0 19 25 41l236 204q23 20 39 20q42 0 42 -43q0 -19 -25 -41z" glyph-name="acute"/>
<glyph unicode="µ" d="M343 34v-364q0 -56 -42 -56t-42 56v1111h-113q-56 0 -56 43q0 42 56 42h197v-627q0 -82 50 -135t132 -53q205 0 376 188v542h-155q-56 0 -56 43q0 42 56 42h239v-782h71q56 0 56 -42t-56 -42h-155v123q-172 -156 -374 -156q-109 0 -184 67z" glyph-name="mu1"/>
<glyph unicode="¶" d="M895 1194v-1263h131q40 0 40 -30q0 -31 -40 -31h-195q-41 0 -41 31q0 20 19 27q8 3 25 3v1263h-176v-1263q44 0 44 -30q0 -31 -40 -31h-280q-40 0 -40 30q0 31 40 31h215v633q-294 20 -402 196q-24 39 -24 97v97q0 121 95 192q146 109 348 109h409q41 0 41 -30 q0 -31 -41 -31h-128zM597 1194q-114 -10 -201 -69q-104 -70 -104 -176v-77q0 -56 27 -95q92 -133 278 -150v567z" glyph-name="paragraph"/>
<glyph unicode="·" d="M913 683q0 -42 -30 -72t-72 -30q-43 0 -73 29.5t-30 72.5t30 73t73 30t72.5 -30t29.5 -73z" glyph-name="middot"/>
<glyph unicode="¸" d="M586 -163v153q0 40 30 40t30 -40v-96q118 -17 118 -110q0 -57 -45 -89q-39 -28 -99 -28q-33 0 -89 15q-89 24 -89 60q0 30 30 30q10 0 23 -7q68 -38 125 -38q83 0 83 59q0 51 -76 51h-41z" glyph-name="cedilla"/>
<glyph unicode="¹" d="M651 1282v-609h157q46 0 46 -29q0 -28 -46 -28h-389q-45 0 -45 29q0 28 45 28h158v529l-148 -40q-11 -3 -19 -3q-35 0 -35 28q0 19 35 29z" glyph-name="onesuperior"/>
<glyph unicode="º" d="M930 1019q0 -127 -97 -211q-92 -81 -221 -81t-221 81q-97 84 -97 211t97 211q92 81 221 81t221 -81q97 -84 97 -211zM849 1019q0 96 -72 157q-67 58 -165 58t-165 -58q-72 -61 -72 -157q0 -95 72 -157q68 -58 165 -58t165 58q72 62 72 157z" glyph-name="ordmasculine"/>
<glyph unicode="»" d="M661 434l-449 -410q-25 -23 -43 -23q-42 0 -42 42q0 17 22 42l313 349l-313 350q-22 25 -22 42q0 42 42 42q17 0 43 -24zM1130 434l-448 -410q-25 -23 -44 -23q-42 0 -42 42q0 17 22 42l313 349l-313 350q-22 25 -22 42q0 42 42 42q18 0 44 -24z" glyph-name="guillemotright"/>
<glyph unicode="¼" d="M277 1282v-609h157q46 0 46 -29q0 -28 -46 -28h-389q-45 0 -45 29q0 28 45 28h158v529l-148 -40q-11 -3 -19 -3q-35 0 -35 28q0 19 35 29zM1185 893l-915 -590q-22 -14 -35 -14q-42 0 -42 42q0 23 31 43l915 590q22 14 35 14q42 0 42 -42q0 -23 -31 -43zM1069 179h-329 v57l279 417h124v-418h29q46 0 46 -28t-46 -28h-29v-123h29q46 0 46 -28t-46 -28h-184q-46 0 -46 28t46 28h81v123zM1069 235v362h-6l-243 -362h249z" glyph-name="onequarter"/>
<glyph unicode="½" d="M277 1282v-609h157q46 0 46 -29q0 -28 -46 -28h-389q-45 0 -45 29q0 28 45 28h158v529l-148 -40q-11 -3 -19 -3q-35 0 -35 28q0 19 35 29zM1155 893l-916 -590q-22 -14 -34 -14q-43 0 -43 42q0 22 32 43l915 590q22 14 34 14q43 0 43 -42q0 -23 -31 -43zM818 56h350 q0 27 7 34q11 11 30 11q18 0 30 -10q7 -7 7 -25v-66h-503v71q350 275 401 340q28 36 28 68q0 60 -54 98q-48 35 -110 35q-130 0 -168 -109q-5 -13 -11 -16q-11 -8 -26 -8q-16 0 -27 10q-9 6 -9 16q0 69 89 119q78 44 152 44q87 0 158 -49q80 -54 80 -138q0 -38 -18 -68 q-28 -47 -162 -160q-169 -142 -244 -197z" glyph-name="onehalf"/>
<glyph unicode="¾" d="M381 972q133 -57 133 -170q0 -93 -90 -151q-78 -50 -175 -50q-57 0 -128 21q-80 23 -114 57q-7 7 -7 17q0 27 34 27q16 0 44 -17q79 -49 171 -49q71 0 127 36q64 41 64 108q0 71 -72 112q-59 33 -136 35q-45 1 -45 29q0 27 43 27q126 0 164 54q19 27 19 56q0 55 -51 87 q-43 28 -101 28q-104 0 -157 -57q-14 -15 -33 -15q-36 0 -36 26q0 9 11 21q74 81 215 81q86 0 151 -41q75 -49 75 -130q0 -99 -106 -142zM1171 893l-915 -590q-22 -14 -34 -14q-43 0 -43 42q0 23 31 43l916 590q22 14 34 14q43 0 43 -42q0 -22 -32 -43zM1064 179h-329v57 l279 417h124v-418h29q46 0 46 -28t-46 -28h-29v-123h29q46 0 46 -28t-46 -28h-184q-45 0 -45 28t45 28h81v123zM1064 235v362h-6l-242 -362h248z" glyph-name="threequarters"/>
<glyph unicode="¿" d="M659 679h-84q-43 0 -73.5 30t-30.5 73q0 44 30 74.5t74 30.5h84q43 0 73.5 -30.5t30.5 -73.5q0 -44 -30 -74t-74 -30zM573 294v85q0 57 43 57q42 0 42 -57v-141q-219 -80 -299 -161q-45 -46 -45 -114q0 -122 87 -198q82 -73 206 -73q118 0 267 71v68q0 57 42 57t42 -57 v-122q-150 -68 -202 -81q-83 -20 -156 -20q-161 0 -264 96q-106 98 -106 258q0 126 115 214q64 49 228 118z" glyph-name="questiondown"/>
<glyph unicode="À" d="M891 391h-552l-113 -307h161q56 0 56 -42t-56 -42h-314q-56 0 -56 42t56 42h65l371 1002h-248q-56 0 -56 42t56 42h423l410 -1086h65q56 0 56 -42t-56 -42h-313q-57 0 -57 42t57 42h160zM859 475l-232 611h-31l-225 -611h488zM452 1576l236 -204l22 -25q3 -5 3 -16 q0 -43 -43 -43q-15 0 -38 20l-236 204q-25 22 -25 41q0 43 43 43q15 0 38 -20z" glyph-name="Agrave"/>
<glyph unicode="Á" d="M891 391h-552l-113 -307h161q56 0 56 -42t-56 -42h-314q-56 0 -56 42t56 42h65l371 1002h-248q-56 0 -56 42t56 42h423l410 -1086h65q56 0 56 -42t-56 -42h-313q-57 0 -57 42t57 42h160zM859 475l-232 611h-31l-225 -611h488zM799 1512l-237 -204q-23 -20 -38 -20 q-42 0 -42 43q0 19 25 41l236 204q23 20 39 20q42 0 42 -43q0 -19 -25 -41z" glyph-name="Aacute"/>
<glyph unicode="Â" d="M891 391h-552l-113 -307h161q56 0 56 -42t-56 -42h-314q-56 0 -56 42t56 42h65l371 1002h-248q-56 0 -56 42t56 42h423l410 -1086h65q56 0 56 -42t-56 -42h-313q-57 0 -57 42t57 42h160zM859 475l-232 611h-31l-225 -611h488zM553 1580l271 -206q28 -21 28 -42 q0 -42 -43 -42q-13 0 -35 17l-221 169l-220 -169q-22 -17 -36 -17q-42 0 -42 42q0 21 28 42z" glyph-name="Acircumflex"/>
<glyph unicode="Ã" d="M891 391h-552l-113 -307h161q56 0 56 -42t-56 -42h-314q-56 0 -56 42t56 42h65l371 1002h-248q-56 0 -56 42t56 42h423l410 -1086h65q56 0 56 -42t-56 -42h-313q-57 0 -57 42t57 42h160zM859 475l-232 611h-31l-225 -611h488zM800 1435q42 0 42 -39q0 -17 -13 -32 q-38 -44 -95 -74q-40 -21 -79 -21q-65 0 -173 79q-59 43 -90 43q-40 0 -101 -56q-27 -25 -46 -25q-41 0 -41 40q0 27 51 66q77 59 136 59q56 0 162 -73q70 -48 102 -48q37 0 115 68q15 13 30 13z" glyph-name="Atilde"/>
<glyph unicode="Ä" d="M891 391h-552l-113 -307h161q56 0 56 -42t-56 -42h-314q-56 0 -56 42t56 42h65l371 1002h-248q-56 0 -56 42t56 42h423l410 -1086h65q56 0 56 -42t-56 -42h-313q-57 0 -57 42t57 42h160zM859 475l-232 611h-31l-225 -611h488zM392 1414q0 -34 -24 -57.5t-58 -23.5 q-33 0 -57 24t-24 57q0 34 23.5 58t57.5 24t58 -24t24 -58zM821 1414q0 -34 -24 -57.5t-58 -23.5t-57.5 23.5t-23.5 57.5t23.5 58t57.5 24t58 -24t24 -58z" glyph-name="Adieresis"/>
<glyph unicode="Å" d="M891 391h-552l-113 -307h161q56 0 56 -42t-56 -42h-314q-56 0 -56 42t56 42h65l371 1002h-248q-56 0 -56 42t56 42h423l410 -1086h65q56 0 56 -42t-56 -42h-313q-57 0 -57 42t57 42h160zM859 475l-232 611h-31l-225 -611h488zM744 1425q0 -76 -52.5 -127t-128.5 -51 t-128.5 51t-52.5 127t52.5 127t128.5 51t128.5 -51t52.5 -127zM684 1425q0 50 -35.5 84t-85.5 34t-85.5 -34t-35.5 -84q0 -49 36 -83.5t85 -34.5q50 0 85.5 34t35.5 84z" glyph-name="Aring"/>
<glyph unicode="Æ" d="M614 394h-293l-85 -310h54q56 0 56 -42t-56 -42h-216q-56 0 -56 42t56 42h77l276 1002h-131q-56 0 -56 42t56 42h874v-316q0 -56 -42 -56q-43 0 -43 56v232h-387v-436h163v58q0 57 42 57t42 -57v-198q0 -57 -42 -57t-42 57v57h-163v-483h430v194q0 56 38 56l20 -3 q26 -15 26 -53v-278h-706q-56 0 -56 42t56 42h108v310zM614 475v611h-104l-166 -611h270z" glyph-name="AE"/>
<glyph unicode="Ç" d="M984 1055v59q0 56 42 56t42 -56v-233q0 -57 -42 -57q-39 0 -42 51q-5 84 -91 149q-117 89 -264 89q-96 0 -183 -43q-65 -32 -102 -76q-133 -157 -133 -331v-147q0 -188 132.5 -326.5t319.5 -138.5q201 0 359 189q18 21 38 21q40 0 40 -39q0 -22 -43 -70 q-166 -185 -392 -185q-243 0 -419 220q-119 149 -119 317v171q0 135 68.5 260.5t182 193.5t248.5 68q208 0 358 -142zM592 -163v153q0 40 30 40t30 -40v-96q118 -17 118 -110q0 -57 -45 -89q-39 -28 -99 -28q-33 0 -89 15q-89 24 -89 60q0 30 30 30q10 0 23 -7 q68 -38 125 -38q83 0 83 59q0 51 -76 51h-41z" glyph-name="Ccedilla"/>
<glyph unicode="È" d="M341 565v-481h646v248q0 56 42 56t42 -56v-332h-927q-56 0 -56 42t56 42h113v1002h-113q-56 0 -56 42t56 42h883v-289q0 -56 -42 -56t-42 56v205h-602v-437h301v95q0 56 43 56q42 0 42 -56v-274q0 -56 -42 -56q-43 0 -43 56v95h-301zM528 1576l236 -204l22 -25 q3 -5 3 -16q0 -43 -43 -43q-15 0 -38 20l-236 204q-25 22 -25 41q0 43 43 43q15 0 38 -20z" glyph-name="Egrave"/>
<glyph unicode="É" d="M341 565v-481h646v248q0 56 42 56t42 -56v-332h-927q-56 0 -56 42t56 42h113v1002h-113q-56 0 -56 42t56 42h883v-289q0 -56 -42 -56t-42 56v205h-602v-437h301v95q0 56 43 56q42 0 42 -56v-274q0 -56 -42 -56q-43 0 -43 56v95h-301zM763 1512l-237 -204q-23 -20 -38 -20 q-42 0 -42 43q0 19 25 41l236 204q23 20 39 20q42 0 42 -43q0 -19 -25 -41z" glyph-name="Eacute"/>
<glyph unicode="Ê" d="M341 565v-481h646v248q0 56 42 56t42 -56v-332h-927q-56 0 -56 42t56 42h113v1002h-113q-56 0 -56 42t56 42h883v-289q0 -56 -42 -56t-42 56v205h-602v-437h301v95q0 56 43 56q42 0 42 -56v-274q0 -56 -42 -56q-43 0 -43 56v95h-301zM615 1577l271 -206q28 -21 28 -42 q0 -42 -43 -42q-13 0 -35 17l-221 169l-220 -169q-22 -17 -36 -17q-42 0 -42 42q0 21 28 42z" glyph-name="Ecircumflex"/>
<glyph unicode="Ë" d="M341 565v-481h646v248q0 56 42 56t42 -56v-332h-927q-56 0 -56 42t56 42h113v1002h-113q-56 0 -56 42t56 42h883v-289q0 -56 -42 -56t-42 56v205h-602v-437h301v95q0 56 43 56q42 0 42 -56v-274q0 -56 -42 -56q-43 0 -43 56v95h-301zM483 1414q0 -34 -24 -57.5t-58 -23.5 q-33 0 -57 24t-24 57q0 34 23.5 58t57.5 24t58 -24t24 -58zM912 1414q0 -34 -24 -57.5t-58 -23.5t-57.5 23.5t-23.5 57.5t23.5 58t57.5 24t58 -24t24 -58z" glyph-name="Edieresis"/>
<glyph unicode="Ì" d="M657 1086v-1002h288q56 0 56 -42t-56 -42h-660q-56 0 -56 42t56 42h288v1002h-288q-56 0 -56 42t56 42h660q56 0 56 -42t-56 -42h-288zM528 1576l236 -204l22 -25q3 -5 3 -16q0 -43 -43 -43q-15 0 -38 20l-236 204q-25 22 -25 41q0 43 43 43q15 0 38 -20z" glyph-name="Igrave"/>
<glyph unicode="Í" d="M657 1086v-1002h288q56 0 56 -42t-56 -42h-660q-56 0 -56 42t56 42h288v1002h-288q-56 0 -56 42t56 42h660q56 0 56 -42t-56 -42h-288zM756 1512l-237 -204q-23 -20 -38 -20q-42 0 -42 43q0 19 25 41l236 204q23 20 39 20q42 0 42 -43q0 -19 -25 -41z" glyph-name="Iacute"/>
<glyph unicode="Î" d="M657 1086v-1002h288q56 0 56 -42t-56 -42h-660q-56 0 -56 42t56 42h288v1002h-288q-56 0 -56 42t56 42h660q56 0 56 -42t-56 -42h-288zM614 1577l271 -206q28 -21 28 -42q0 -42 -43 -42q-13 0 -35 17l-221 169l-220 -169q-22 -17 -36 -17q-42 0 -42 42q0 21 28 42z" glyph-name="Icircumflex"/>
<glyph unicode="Ï" d="M657 1086v-1002h288q56 0 56 -42t-56 -42h-660q-56 0 -56 42t56 42h288v1002h-288q-56 0 -56 42t56 42h660q56 0 56 -42t-56 -42h-288zM482 1414q0 -34 -24 -57.5t-58 -23.5q-33 0 -57 24t-24 57q0 34 23.5 58t57.5 24t58 -24t24 -58zM911 1414q0 -34 -24 -57.5 t-58 -23.5t-57.5 23.5t-23.5 57.5t23.5 58t57.5 24t58 -24t24 -58z" glyph-name="Idieresis"/>
<glyph unicode="Ð" d="M213 564h-99q-80 0 -87 2q-30 9 -30 41q0 31 30 40q7 2 87 2h99v437h-70q-57 0 -57 42t57 42h451q208 0 327 -144q79 -96 120 -201q30 -77 30 -182v-116q0 -294 -248 -461q-98 -66 -229 -66h-451q-57 0 -57 42t57 42h70v480zM298 564v-480h305q105 0 200 70 q89 65 137 165q46 96 46 190v152q0 153 -126 308q-95 117 -257 117h-305v-437h234q80 0 87 -2q30 -9 30 -40q0 -32 -30 -41q-7 -2 -87 -2h-234z" glyph-name="Eth"/>
<glyph unicode="Ñ" d="M1026 0h-108l-619 1047v-963h155q57 0 57 -42t-57 -42h-309q-57 0 -57 42t57 42h70v1002h-113q-56 0 -56 42t56 42h220l620 -1049v965h-155q-56 0 -56 42t56 42h310q56 0 56 -42t-56 -42h-71v-1086zM890 1435q42 0 42 -39q0 -17 -13 -32q-38 -44 -95 -74q-40 -21 -79 -21 q-65 0 -173 79q-59 43 -90 43q-40 0 -101 -56q-27 -25 -46 -25q-41 0 -41 40q0 27 51 66q77 59 136 59q56 0 162 -73q70 -48 102 -48q37 0 115 68q15 13 30 13z" glyph-name="Ntilde"/>
<glyph unicode="Ò" d="M1024 582q0 -162 -62 -300q-67 -151 -193 -235q-120 -80 -257 -80q-231 0 -378 197q-134 179 -134 418t133 418q147 197 379 197q145 0 265 -86q114 -81 179 -217q68 -142 68 -312zM939 582q0 203 -110 358q-123 173 -317 173t-317 -174q-111 -157 -111 -357 q0 -201 111 -357q124 -174 317 -174q194 0 317 173q110 155 110 358zM461 1576l236 -204l22 -25q3 -5 3 -16q0 -43 -43 -43q-15 0 -38 20l-236 204q-25 22 -25 41q0 43 43 43q15 0 38 -20z" glyph-name="Ograve"/>
<glyph unicode="Ó" d="M1024 582q0 -162 -62 -300q-67 -151 -193 -235q-120 -80 -257 -80q-231 0 -378 197q-134 179 -134 418t133 418q147 197 379 197q145 0 265 -86q114 -81 179 -217q68 -142 68 -312zM939 582q0 203 -110 358q-123 173 -317 173t-317 -174q-111 -157 -111 -357 q0 -201 111 -357q124 -174 317 -174q194 0 317 173q110 155 110 358zM700 1512l-237 -204q-23 -20 -38 -20q-42 0 -42 43q0 19 25 41l236 204q23 20 39 20q42 0 42 -43q0 -19 -25 -41z" glyph-name="Oacute"/>
<glyph unicode="Ô" d="M1024 582q0 -162 -62 -300q-67 -151 -193 -235q-120 -80 -257 -80q-231 0 -378 197q-134 179 -134 418t133 418q147 197 379 197q145 0 265 -86q114 -81 179 -217q68 -142 68 -312zM939 582q0 203 -110 358q-123 173 -317 173t-317 -174q-111 -157 -111 -357 q0 -201 111 -357q124 -174 317 -174q194 0 317 173q110 155 110 358zM534 1577l271 -206q28 -21 28 -42q0 -42 -43 -42q-13 0 -35 17l-221 169l-220 -169q-22 -17 -36 -17q-42 0 -42 42q0 21 28 42z" glyph-name="Ocircumflex"/>
<glyph unicode="Õ" d="M1024 582q0 -162 -62 -300q-67 -151 -193 -235q-120 -80 -257 -80q-231 0 -378 197q-134 179 -134 418t133 418q147 197 379 197q145 0 265 -86q114 -81 179 -217q68 -142 68 -312zM939 582q0 203 -110 358q-123 173 -317 173t-317 -174q-111 -157 -111 -357 q0 -201 111 -357q124 -174 317 -174q194 0 317 173q110 155 110 358zM822 1435q42 0 42 -39q0 -17 -13 -32q-38 -44 -95 -74q-40 -21 -79 -21q-65 0 -173 79q-59 43 -90 43q-40 0 -101 -56q-27 -25 -46 -25q-41 0 -41 40q0 27 51 66q77 59 136 59q56 0 162 -73 q70 -48 102 -48q37 0 115 68q15 13 30 13z" glyph-name="Otilde"/>
<glyph unicode="Ö" d="M1024 582q0 -162 -62 -300q-67 -151 -193 -235q-120 -80 -257 -80q-231 0 -378 197q-134 179 -134 418t133 418q147 197 379 197q145 0 265 -86q114 -81 179 -217q68 -142 68 -312zM939 582q0 203 -110 358q-123 173 -317 173t-317 -174q-111 -157 -111 -357 q0 -201 111 -357q124 -174 317 -174q194 0 317 173q110 155 110 358zM412 1414q0 -34 -24 -57.5t-58 -23.5q-33 0 -57 24t-24 57q0 34 23.5 58t57.5 24t58 -24t24 -58zM841 1414q0 -34 -24 -57.5t-58 -23.5t-57.5 23.5t-23.5 57.5t23.5 58t57.5 24t58 -24t24 -58z" glyph-name="Odieresis"/>
<glyph unicode="×" d="M615 525l-263 -263q-22 -22 -39 -22q-43 0 -43 43q0 16 23 39l262 263l-263 263q-22 22 -22 39q0 43 43 43q16 0 39 -23l263 -263l261 262q22 22 40 22q42 0 42 -43q0 -17 -22 -39l-261 -261l263 -263q22 -22 22 -40q0 -43 -43 -43q-16 0 -39 23z" glyph-name="multiply"/>
<glyph unicode="Ø" d="M291 104l-127 -161q-21 -27 -41 -27q-43 0 -43 43q0 13 18 36l137 174q-131 181 -131 412q0 240 133 419q146 197 379 197q183 0 322 -134l127 162q21 27 42 27q42 0 42 -43q0 -14 -17 -36l-137 -174q133 -177 133 -417q0 -238 -134 -418q-147 -197 -378 -197 q-184 0 -325 137zM884 995q-121 118 -268 118q-193 0 -317 -174q-111 -156 -111 -357q0 -191 102 -343zM344 172q121 -121 272 -121q193 0 316 174q111 157 111 357q0 196 -103 347z" glyph-name="Oslash"/>
<glyph unicode="Ù" d="M1021 1086v-702q0 -177 -113.5 -297t-289.5 -120q-226 0 -347 198q-61 100 -61 219v702h-71q-56 0 -56 42t56 42h310q56 0 56 -42t-56 -42h-155v-702q0 -136 92 -233q93 -100 228 -100q171 0 272 155q51 78 51 178v702h-155q-56 0 -56 42t56 42h310q56 0 56 -42t-56 -42 h-71zM496 1576l236 -204l22 -25q3 -5 3 -16q0 -43 -43 -43q-15 0 -38 20l-236 204q-25 22 -25 41q0 43 43 43q15 0 38 -20z" glyph-name="Ugrave"/>
<glyph unicode="Ú" d="M1021 1086v-702q0 -177 -113.5 -297t-289.5 -120q-226 0 -347 198q-61 100 -61 219v702h-71q-56 0 -56 42t56 42h310q56 0 56 -42t-56 -42h-155v-702q0 -136 92 -233q93 -100 228 -100q171 0 272 155q51 78 51 178v702h-155q-56 0 -56 42t56 42h310q56 0 56 -42t-56 -42 h-71zM782 1512l-237 -204q-23 -20 -38 -20q-42 0 -42 43q0 19 25 41l236 204q23 20 39 20q42 0 42 -43q0 -19 -25 -41z" glyph-name="Uacute"/>
<glyph unicode="Û" d="M1021 1086v-702q0 -177 -113.5 -297t-289.5 -120q-226 0 -347 198q-61 100 -61 219v702h-71q-56 0 -56 42t56 42h310q56 0 56 -42t-56 -42h-155v-702q0 -136 92 -233q93 -100 228 -100q171 0 272 155q51 78 51 178v702h-155q-56 0 -56 42t56 42h310q56 0 56 -42t-56 -42 h-71zM615 1577l271 -206q28 -21 28 -42q0 -42 -43 -42q-13 0 -35 17l-221 169l-220 -169q-22 -17 -36 -17q-42 0 -42 42q0 21 28 42z" glyph-name="Ucircumflex"/>
<glyph unicode="Ü" d="M1021 1086v-702q0 -177 -113.5 -297t-289.5 -120q-226 0 -347 198q-61 100 -61 219v702h-71q-56 0 -56 42t56 42h310q56 0 56 -42t-56 -42h-155v-702q0 -136 92 -233q93 -100 228 -100q171 0 272 155q51 78 51 178v702h-155q-56 0 -56 42t56 42h310q56 0 56 -42t-56 -42 h-71zM483 1414q0 -34 -24 -57.5t-58 -23.5q-33 0 -57 24t-24 57q0 34 23.5 58t57.5 24t58 -24t24 -58zM912 1414q0 -34 -24 -57.5t-58 -23.5t-57.5 23.5t-23.5 57.5t23.5 58t57.5 24t58 -24t24 -58z" glyph-name="Udieresis"/>
<glyph unicode="Ý" d="M659 528v-444h218q56 0 56 -42t-56 -42h-521q-56 0 -56 42t56 42h218v444l-369 558h-50q-56 0 -56 42t56 42h231q56 0 56 -42t-56 -42h-83l314 -473l307 473h-82q-57 0 -57 42t57 42h230q56 0 56 -42t-56 -42h-50zM760 1503l-237 -204q-23 -20 -38 -20q-42 0 -42 43 q0 19 25 41l236 204q23 20 39 20q42 0 42 -43q0 -19 -25 -41z" glyph-name="Yacute"/>
<glyph unicode="Þ" d="M259 1170h461q56 0 56 -42t-56 -42h-288v-157h291q160 0 271 -90q121 -96 121 -252q0 -157 -121 -247q-74 -55 -155 -82q-60 -20 -144 -20h-263v-154h288q56 0 56 -42t-56 -42h-485q-56 0 -56 42t56 42h113v1002h-113q-56 0 -56 42q0 30 25 39q9 3 55 3zM432 323h268 q86 0 165 36q87 39 129 106q37 59 37 122q0 115 -94 189q-87 68 -206 68h-299v-521z" glyph-name="Thorn"/>
<glyph unicode="ß" d="M258 84v906q0 118 90 194q85 71 205 71q130 0 216.5 -86.5t86.5 -216.5q0 -125 -120 -207q93 -39 146 -84q149 -126 149 -328q0 -138 -66 -244q-76 -122 -208 -122q-99 0 -161 73q-57 69 -57 170q0 47 42 47q39 0 42 -49q9 -157 135 -157q91 0 144 99q44 82 44 182 q0 166 -109 259q-44 38 -133 78q-55 25 -132 25q-59 0 -59 43q0 42 46 42q128 0 188 91q25 38 25 85q0 91 -64 153t-155 62q-83 0 -144 -48q-67 -52 -67 -132v-906h32q56 0 56 -42t-56 -42h-229q-56 0 -56 42t56 42h113z" glyph-name="germandbls"/>
<glyph unicode="à" d="M856 0v121q-183 -154 -391 -154q-133 0 -221 64q-100 72 -100 200q0 156 150 238q120 66 289 66q120 0 273 -31v136q0 90 -88 135q-69 36 -168 36q-97 0 -275 -57q-31 -10 -41 -10q-39 0 -39 42q0 17 10 27q14 15 113 41q159 42 236 42q128 0 225 -62q112 -72 112 -194 v-556h112q57 0 57 -42t-57 -42h-197zM856 418q-115 33 -264 33q-182 0 -286 -79q-78 -59 -78 -141q0 -91 74 -139q63 -41 159 -41q205 0 395 182v185zM525 1308l236 -204l22 -25q3 -5 3 -16q0 -43 -43 -43q-15 0 -38 20l-236 204q-25 22 -25 41q0 43 43 43q15 0 38 -20z" glyph-name="agrave"/>
<glyph unicode="á" d="M856 0v121q-183 -154 -391 -154q-133 0 -221 64q-100 72 -100 200q0 156 150 238q120 66 289 66q120 0 273 -31v136q0 90 -88 135q-69 36 -168 36q-97 0 -275 -57q-31 -10 -41 -10q-39 0 -39 42q0 17 10 27q14 15 113 41q159 42 236 42q128 0 225 -62q112 -72 112 -194 v-556h112q57 0 57 -42t-57 -42h-197zM856 418q-115 33 -264 33q-182 0 -286 -79q-78 -59 -78 -141q0 -91 74 -139q63 -41 159 -41q205 0 395 182v185zM760 1244l-237 -204q-23 -20 -38 -20q-42 0 -42 43q0 19 25 41l236 204q23 20 39 20q42 0 42 -43q0 -19 -25 -41z" glyph-name="aacute"/>
<glyph unicode="â" d="M856 0v121q-183 -154 -391 -154q-133 0 -221 64q-100 72 -100 200q0 156 150 238q120 66 289 66q120 0 273 -31v136q0 90 -88 135q-69 36 -168 36q-97 0 -275 -57q-31 -10 -41 -10q-39 0 -39 42q0 17 10 27q14 15 113 41q159 42 236 42q128 0 225 -62q112 -72 112 -194 v-556h112q57 0 57 -42t-57 -42h-197zM856 418q-115 33 -264 33q-182 0 -286 -79q-78 -59 -78 -141q0 -91 74 -139q63 -41 159 -41q205 0 395 182v185zM614 1310l271 -206q28 -21 28 -42q0 -42 -43 -42q-13 0 -35 17l-221 169l-220 -169q-22 -17 -36 -17q-42 0 -42 42 q0 21 28 42z" glyph-name="acircumflex"/>
<glyph unicode="ã" d="M856 0v121q-183 -154 -391 -154q-133 0 -221 64q-100 72 -100 200q0 156 150 238q120 66 289 66q120 0 273 -31v136q0 90 -88 135q-69 36 -168 36q-97 0 -275 -57q-31 -10 -41 -10q-39 0 -39 42q0 17 10 27q14 15 113 41q159 42 236 42q128 0 225 -62q112 -72 112 -194 v-556h112q57 0 57 -42t-57 -42h-197zM856 418q-115 33 -264 33q-182 0 -286 -79q-78 -59 -78 -141q0 -91 74 -139q63 -41 159 -41q205 0 395 182v185zM892 1167q42 0 42 -39q0 -17 -13 -32q-38 -44 -95 -74q-40 -21 -79 -21q-65 0 -173 79q-59 43 -90 43q-40 0 -101 -56 q-27 -25 -46 -25q-41 0 -41 40q0 27 51 66q77 59 136 59q56 0 162 -73q70 -48 102 -48q37 0 115 68q15 13 30 13z" glyph-name="atilde"/>
<glyph unicode="ä" d="M856 0v121q-183 -154 -391 -154q-133 0 -221 64q-100 72 -100 200q0 156 150 238q120 66 289 66q120 0 273 -31v136q0 90 -88 135q-69 36 -168 36q-97 0 -275 -57q-31 -10 -41 -10q-39 0 -39 42q0 17 10 27q14 15 113 41q159 42 236 42q128 0 225 -62q112 -72 112 -194 v-556h112q57 0 57 -42t-57 -42h-197zM856 418q-115 33 -264 33q-182 0 -286 -79q-78 -59 -78 -141q0 -91 74 -139q63 -41 159 -41q205 0 395 182v185zM435 1146q0 -34 -24 -57.5t-58 -23.5q-33 0 -57 24t-24 57q0 34 23.5 58t57.5 24t58 -24t24 -58zM864 1146 q0 -34 -24 -57.5t-58 -23.5t-57.5 23.5t-23.5 57.5t23.5 58t57.5 24t58 -24t24 -58z" glyph-name="adieresis"/>
<glyph unicode="å" d="M856 0v121q-183 -154 -391 -154q-133 0 -221 64q-100 72 -100 200q0 156 150 238q120 66 289 66q120 0 273 -31v136q0 90 -88 135q-69 36 -168 36q-97 0 -275 -57q-31 -10 -41 -10q-39 0 -39 42q0 17 10 27q14 15 113 41q159 42 236 42q128 0 225 -62q112 -72 112 -194 v-556h112q57 0 57 -42t-57 -42h-197zM856 418q-115 33 -264 33q-182 0 -286 -79q-78 -59 -78 -141q0 -91 74 -139q63 -41 159 -41q205 0 395 182v185zM795 1186q0 -76 -52.5 -127t-128.5 -51t-128.5 51t-52.5 127t52.5 127t128.5 51t128.5 -51t52.5 -127zM735 1186 q0 50 -35.5 84t-85.5 34t-85.5 -34t-35.5 -84q0 -49 36 -83.5t85 -34.5q50 0 85.5 34t35.5 84z" glyph-name="aring"/>
<glyph unicode="æ" d="M1192 412h-534q15 -181 100 -286q61 -75 129 -75q89 0 231 116q18 15 33 15q41 0 41 -42q0 -17 -13 -31q-47 -51 -152 -103q-78 -39 -139 -39q-137 0 -230 159v-70q0 -56 -42 -56t-42 56v45q-125 -134 -246 -134q-184 0 -270 168q-42 82 -42 165q0 109 145 176 q125 58 234 58q91 0 179 -26v125q0 68 -49.5 123t-117.5 55q-82 0 -189 -55q-25 -13 -37 -13q-41 0 -41 41q0 36 119 79q91 33 153 33q78 0 142 -53q59 -48 88 -125q108 178 241 178q152 0 239 -176q69 -139 70 -308zM1107 496q-20 156 -102 249q-58 66 -125 66 q-63 0 -121 -67q-80 -92 -101 -248h449zM574 420q-90 30 -172 30q-140 0 -249 -72q-53 -35 -53 -85q0 -145 115 -211q54 -31 111 -31q110 0 248 178v191z" glyph-name="ae"/>
<glyph unicode="ç" d="M965 781v28q0 57 42 57q43 0 43 -57v-190q0 -57 -43 -57q-38 0 -42 50q-8 97 -125 153q-96 46 -204 46q-173 0 -277 -106t-104 -279q0 -170 106.5 -272.5t277.5 -102.5q226 0 383 152q21 20 37 20q40 0 40 -40q0 -43 -101 -109q-163 -107 -363 -107q-205 0 -334.5 126.5 t-129.5 331.5q0 207 131.5 339t338.5 132q193 0 324 -115zM586 -163v153q0 40 30 40t30 -40v-96q118 -17 118 -110q0 -57 -45 -89q-39 -28 -99 -28q-33 0 -89 15q-89 24 -89 60q0 30 30 30q10 0 23 -7q68 -38 125 -38q83 0 83 59q0 51 -76 51h-41z" glyph-name="ccedilla"/>
<glyph unicode="è" d="M1069 413h-856q22 -167 136 -264.5t284 -97.5q221 0 365 113q19 15 33 15q40 0 40 -42q0 -16 -16 -33q-61 -63 -198 -103q-117 -34 -224 -34q-215 0 -358 133q-147 137 -147 351q0 196 139 323q134 122 332 122q214 0 343 -134.5t127 -348.5zM984 498q-25 144 -132 230 q-105 83 -253 83t-252 -84q-107 -85 -133 -229h770zM525 1309l236 -204l22 -25q3 -5 3 -16q0 -43 -43 -43q-15 0 -38 20l-236 204q-25 22 -25 41q0 43 43 43q15 0 38 -20z" glyph-name="egrave"/>
<glyph unicode="é" d="M1069 413h-856q22 -167 136 -264.5t284 -97.5q221 0 365 113q19 15 33 15q40 0 40 -42q0 -16 -16 -33q-61 -63 -198 -103q-117 -34 -224 -34q-215 0 -358 133q-147 137 -147 351q0 196 139 323q134 122 332 122q214 0 343 -134.5t127 -348.5zM984 498q-25 144 -132 230 q-105 83 -253 83t-252 -84q-107 -85 -133 -229h770zM761 1245l-237 -204q-23 -20 -38 -20q-42 0 -42 43q0 19 25 41l236 204q23 20 39 20q42 0 42 -43q0 -19 -25 -41z" glyph-name="eacute"/>
<glyph unicode="ê" d="M1069 413h-856q22 -167 136 -264.5t284 -97.5q221 0 365 113q19 15 33 15q40 0 40 -42q0 -16 -16 -33q-61 -63 -198 -103q-117 -34 -224 -34q-215 0 -358 133q-147 137 -147 351q0 196 139 323q134 122 332 122q214 0 343 -134.5t127 -348.5zM984 498q-25 144 -132 230 q-105 83 -253 83t-252 -84q-107 -85 -133 -229h770zM614 1310l271 -206q28 -21 28 -42q0 -42 -43 -42q-13 0 -35 17l-221 169l-220 -169q-22 -17 -36 -17q-42 0 -42 42q0 21 28 42z" glyph-name="ecircumflex"/>
<glyph unicode="ë" d="M1069 413h-856q22 -167 136 -264.5t284 -97.5q221 0 365 113q19 15 33 15q40 0 40 -42q0 -16 -16 -33q-61 -63 -198 -103q-117 -34 -224 -34q-215 0 -358 133q-147 137 -147 351q0 196 139 323q134 122 332 122q214 0 343 -134.5t127 -348.5zM984 498q-25 144 -132 230 q-105 83 -253 83t-252 -84q-107 -85 -133 -229h770zM486 1146q0 -34 -24 -57.5t-58 -23.5q-33 0 -57 24t-24 57q0 34 23.5 58t57.5 24t58 -24t24 -58zM915 1146q0 -34 -24 -57.5t-58 -23.5t-57.5 23.5t-23.5 57.5t23.5 58t57.5 24t58 -24t24 -58z" glyph-name="edieresis"/>
<glyph unicode="ì" d="M660 866v-782h330q57 0 57 -42t-57 -42h-744q-51 0 -60 44q9 40 60 40h330v697h-245q-57 0 -57 42q0 43 57 43h329zM449 1300l236 -204l22 -25q3 -5 3 -16q0 -43 -43 -43q-15 0 -38 20l-236 204q-25 22 -25 41q0 43 43 43q15 0 38 -20z" glyph-name="igrave"/>
<glyph unicode="í" d="M660 866v-782h330q57 0 57 -42t-57 -42h-744q-51 0 -60 44q9 40 60 40h330v697h-245q-57 0 -57 42q0 43 57 43h329zM675 1244l-237 -204q-23 -20 -38 -20q-42 0 -42 43q0 19 25 41l236 204q23 20 39 20q42 0 42 -43q0 -19 -25 -41z" glyph-name="iacute"/>
<glyph unicode="î" d="M660 866v-782h330q57 0 57 -42t-57 -42h-744q-51 0 -60 44q9 40 60 40h330v697h-245q-57 0 -57 42q0 43 57 43h329zM530 1310l271 -206q28 -21 28 -42q0 -42 -43 -42q-13 0 -35 17l-221 169l-220 -169q-22 -17 -36 -17q-42 0 -42 42q0 21 28 42z" glyph-name="icircumflex"/>
<glyph unicode="ï" d="M660 866v-782h330q57 0 57 -42t-57 -42h-744q-51 0 -60 44q9 40 60 40h330v697h-245q-57 0 -57 42q0 43 57 43h329zM398 1146q0 -34 -24 -57.5t-58 -23.5q-33 0 -57 24t-24 57q0 34 23.5 58t57.5 24t58 -24t24 -58zM827 1146q0 -34 -24 -57.5t-58 -23.5t-57.5 23.5 t-23.5 57.5t23.5 58t57.5 24t58 -24t24 -58z" glyph-name="idieresis"/>
<glyph unicode="ð" d="M725 1173l159 58q25 9 47 9q37 0 37 -40q0 -18 -16 -30q-27 -20 -155 -47q273 -250 273 -627q0 -238 -116 -377q-124 -150 -358 -150q-200 0 -333.5 131t-133.5 330q0 194 133 320q131 123 326 123q184 0 312 -114q35 -31 75 -95q-39 153 -94 238q-49 76 -175 187 q-321 -112 -341 -112q-43 0 -43 38q0 33 119 69q132 40 180 51q-60 11 -118 23q-87 18 -87 52q0 40 55 40q130 0 254 -77zM600 48q101 0 191.5 48t138.5 133t48 189q0 164 -108 267t-273 103q-163 0 -273 -100q-113 -103 -113 -264q0 -101 55 -190t145 -136q95 -50 189 -50z " glyph-name="eth"/>
<glyph unicode="ñ" d="M343 866v-127q155 157 319 157q186 0 277 -140q45 -69 45 -143v-529h71q56 0 56 -42t-56 -42h-225q-57 0 -57 42t57 42h70v515q0 98 -72 157q-67 55 -167 55q-102 0 -181 -59q-47 -35 -137 -141v-527h95q56 0 56 -42t-56 -42h-274q-56 0 -56 42t56 42h95v697h-71 q-56 0 -56 43q0 42 56 42h155zM892 1167q42 0 42 -39q0 -17 -13 -32q-38 -44 -95 -74q-40 -21 -79 -21q-65 0 -173 79q-59 43 -90 43q-40 0 -101 -56q-27 -25 -46 -25q-41 0 -41 40q0 27 51 66q77 59 136 59q56 0 162 -73q70 -48 102 -48q37 0 115 68q15 13 30 13z" glyph-name="ntilde"/>
<glyph unicode="ò" d="M1084 431q0 -197 -136 -330.5t-333 -133.5q-199 0 -334.5 132.5t-135.5 331.5q0 198 136 331.5t334 133.5t333.5 -133.5t135.5 -331.5zM999 431q0 163 -111 271.5t-274 108.5t-274 -109t-111 -271t111.5 -271t273.5 -109q163 0 274 109t111 271zM524 1309l236 -204 l22 -25q3 -5 3 -16q0 -43 -43 -43q-15 0 -38 20l-236 204q-25 22 -25 41q0 43 43 43q15 0 38 -20z" glyph-name="ograve"/>
<glyph unicode="ó" d="M1084 431q0 -197 -136 -330.5t-333 -133.5q-199 0 -334.5 132.5t-135.5 331.5q0 198 136 331.5t334 133.5t333.5 -133.5t135.5 -331.5zM999 431q0 163 -111 271.5t-274 108.5t-274 -109t-111 -271t111.5 -271t273.5 -109q163 0 274 109t111 271zM760 1245l-237 -204 q-23 -20 -38 -20q-42 0 -42 43q0 19 25 41l236 204q23 20 39 20q42 0 42 -43q0 -19 -25 -41z" glyph-name="oacute"/>
<glyph unicode="ô" d="M1084 431q0 -197 -136 -330.5t-333 -133.5q-199 0 -334.5 132.5t-135.5 331.5q0 198 136 331.5t334 133.5t333.5 -133.5t135.5 -331.5zM999 431q0 163 -111 271.5t-274 108.5t-274 -109t-111 -271t111.5 -271t273.5 -109q163 0 274 109t111 271zM614 1310l271 -206 q28 -21 28 -42q0 -42 -43 -42q-13 0 -35 17l-221 169l-220 -169q-22 -17 -36 -17q-42 0 -42 42q0 21 28 42z" glyph-name="ocircumflex"/>
<glyph unicode="õ" d="M1084 431q0 -197 -136 -330.5t-333 -133.5q-199 0 -334.5 132.5t-135.5 331.5q0 198 136 331.5t334 133.5t333.5 -133.5t135.5 -331.5zM999 431q0 163 -111 271.5t-274 108.5t-274 -109t-111 -271t111.5 -271t273.5 -109q163 0 274 109t111 271zM891 1167q42 0 42 -39 q0 -17 -13 -32q-38 -44 -95 -74q-40 -21 -79 -21q-65 0 -173 79q-59 43 -90 43q-40 0 -101 -56q-27 -25 -46 -25q-41 0 -41 40q0 27 51 66q77 59 136 59q56 0 162 -73q70 -48 102 -48q37 0 115 68q15 13 30 13z" glyph-name="otilde"/>
<glyph unicode="ö" d="M1084 431q0 -197 -136 -330.5t-333 -133.5q-199 0 -334.5 132.5t-135.5 331.5q0 198 136 331.5t334 133.5t333.5 -133.5t135.5 -331.5zM999 431q0 163 -111 271.5t-274 108.5t-274 -109t-111 -271t111.5 -271t273.5 -109q163 0 274 109t111 271zM482 1146 q0 -34 -24 -57.5t-58 -23.5q-33 0 -57 24t-24 57q0 34 23.5 58t57.5 24t58 -24t24 -58zM911 1146q0 -34 -24 -57.5t-58 -23.5t-57.5 23.5t-23.5 57.5t23.5 58t57.5 24t58 -24t24 -58z" glyph-name="odieresis"/>
<glyph unicode="÷" d="M696 978q0 -34 -23.5 -58t-57.5 -24t-58 24t-24 58t24 57.5t58 23.5t57.5 -23.5t23.5 -57.5zM968 543h-707q-79 0 -87 2q-30 7 -30 40t30 40q8 2 87 2h707q79 0 87 -2q30 -7 30 -40t-30 -40q-8 -2 -87 -2zM696 192q0 -34 -24 -57.5t-58 -23.5t-57.5 23.5t-23.5 57.5 t23.5 57.5t57.5 23.5t58 -23.5t24 -57.5z" glyph-name="divide"/>
<glyph unicode="ø" d="M320 66l-126 -129q-22 -23 -40 -23q-42 0 -42 44q0 15 22 38l123 126q-123 133 -123 310q0 200 142 334q140 130 341 130q167 0 298 -99l125 128q21 22 40 22q42 0 42 -43q0 -16 -22 -39l-122 -125q122 -132 122 -309q0 -200 -141 -332t-342 -132q-162 0 -297 99z M855 736q-106 75 -238 75q-166 0 -280 -106q-118 -110 -118 -274q0 -137 97 -248zM379 127q106 -76 239 -76q165 0 281 108t116 272q0 141 -96 249z" glyph-name="oslash"/>
<glyph unicode="ù" d="M902 0v123q-172 -156 -372 -156q-123 0 -187 67q-83 88 -83 205v542h-113q-56 0 -56 43q0 42 56 42h197v-627q0 -82 50 -135t132 -53q205 0 376 188v542h-155q-56 0 -56 43q0 42 56 42h239v-782h71q56 0 56 -42t-56 -42h-155zM525 1309l236 -204l22 -25q3 -5 3 -16 q0 -43 -43 -43q-15 0 -38 20l-236 204q-25 22 -25 41q0 43 43 43q15 0 38 -20z" glyph-name="ugrave"/>
<glyph unicode="ú" d="M902 0v123q-172 -156 -372 -156q-123 0 -187 67q-83 88 -83 205v542h-113q-56 0 -56 43q0 42 56 42h197v-627q0 -82 50 -135t132 -53q205 0 376 188v542h-155q-56 0 -56 43q0 42 56 42h239v-782h71q56 0 56 -42t-56 -42h-155zM761 1245l-237 -204q-23 -20 -38 -20 q-42 0 -42 43q0 19 25 41l236 204q23 20 39 20q42 0 42 -43q0 -19 -25 -41z" glyph-name="uacute"/>
<glyph unicode="û" d="M902 0v123q-172 -156 -372 -156q-123 0 -187 67q-83 88 -83 205v542h-113q-56 0 -56 43q0 42 56 42h197v-627q0 -82 50 -135t132 -53q205 0 376 188v542h-155q-56 0 -56 43q0 42 56 42h239v-782h71q56 0 56 -42t-56 -42h-155zM615 1310l271 -206q28 -21 28 -42 q0 -42 -43 -42q-13 0 -35 17l-221 169l-220 -169q-22 -17 -36 -17q-42 0 -42 42q0 21 28 42z" glyph-name="ucircumflex"/>
<glyph unicode="ü" d="M902 0v123q-172 -156 -372 -156q-123 0 -187 67q-83 88 -83 205v542h-113q-56 0 -56 43q0 42 56 42h197v-627q0 -82 50 -135t132 -53q205 0 376 188v542h-155q-56 0 -56 43q0 42 56 42h239v-782h71q56 0 56 -42t-56 -42h-155zM446 1146q0 -34 -24 -57.5t-58 -23.5 q-33 0 -57 24t-24 57q0 34 23.5 58t57.5 24t58 -24t24 -58zM875 1146q0 -34 -24 -57.5t-58 -23.5t-57.5 23.5t-23.5 57.5t23.5 58t57.5 24t58 -24t24 -58z" glyph-name="udieresis"/>
<glyph unicode="ý" d="M620 0l-390 781h-25q-56 0 -56 42q0 28 24 39q9 4 32 4h230q56 0 56 -43q0 -42 -56 -42h-113l343 -689l338 689h-113q-56 0 -56 43q0 42 56 42h229q57 0 57 -43q0 -29 -26 -38q-11 -4 -56 -4l-532 -1083h131q56 0 56 -42t-56 -42h-484q-56 0 -56 42t56 42h263zM900 1245 l-237 -204q-23 -20 -38 -20q-42 0 -42 43q0 19 25 41l236 204q23 20 39 20q42 0 42 -43q0 -19 -25 -41z" glyph-name="yacute"/>
<glyph unicode="þ" d="M298 1255v-542q151 183 364 183q269 0 391 -219q58 -104 58 -218q0 -189 -129 -313.5t-319 -124.5q-225 0 -365 183v-506h204q56 0 56 -42t-56 -42h-401q-56 0 -56 42t56 42h113v1472h-113q-56 0 -56 43q0 42 56 42h197zM1026 459q0 152 -105 252t-258 100 q-152 0 -257 -99q-108 -102 -108 -253q0 -152 106 -252.5t259 -100.5t258 100.5t105 252.5z" glyph-name="thorn"/>
<glyph unicode="ı" d="M660 866v-782h330q57 0 57 -42t-57 -42h-744q-51 0 -60 44q9 40 60 40h330v697h-245q-57 0 -57 42q0 43 57 43h329z" glyph-name="dotlessi"/>
<glyph unicode="ˆ" d="M614 1310l271 -206q28 -21 28 -42q0 -42 -43 -42q-13 0 -35 17l-221 169l-220 -169q-22 -17 -36 -17q-42 0 -42 42q0 21 28 42z" glyph-name="circumflex"/>
<glyph unicode="˘" d="M356 1298q37 0 42 -48q7 -70 79 -111q62 -36 138 -36q78 0 138 35q70 40 78 112q5 48 42 48q43 0 43 -46q0 -109 -100 -176q-87 -58 -201 -58t-201 58q-100 67 -100 176q0 46 42 46z" glyph-name="breve"/>
<glyph unicode="˚" d="M795 1186q0 -76 -52.5 -127t-128.5 -51t-128.5 51t-52.5 127t52.5 127t128.5 51t128.5 -51t52.5 -127zM735 1186q0 50 -35.5 84t-85.5 34t-85.5 -34t-35.5 -84q0 -49 36 -83.5t85 -34.5q50 0 85.5 34t35.5 84z" glyph-name="ring"/>
<glyph unicode="˜" d="M892 1167q42 0 42 -39q0 -17 -13 -32q-38 -44 -95 -74q-40 -21 -79 -21q-65 0 -173 79q-59 43 -90 43q-40 0 -101 -56q-27 -25 -46 -25q-41 0 -41 40q0 27 51 66q77 59 136 59q56 0 162 -73q70 -48 102 -48q37 0 115 68q15 13 30 13z" glyph-name="tilde"/>
<glyph unicode="Ё" d="M341 565v-481h646v248q0 56 42 56t42 -56v-332h-927q-56 0 -56 42t56 42h113v1002h-113q-56 0 -56 42t56 42h883v-289q0 -56 -42 -56t-42 56v205h-602v-437h301v95q0 56 43 56q42 0 42 -56v-274q0 -56 -42 -56q-43 0 -43 56v95h-301zM482 1414q0 -34 -24 -57.5t-58 -23.5 q-33 0 -57 24t-24 57q0 34 23.5 58t57.5 24t58 -24t24 -58zM911 1414q0 -34 -24 -57.5t-58 -23.5t-57.5 23.5t-23.5 57.5t23.5 58t57.5 24t58 -24t24 -58z" glyph-name="afii10023"/>
<glyph unicode="Ђ" d="M491 430v-346h97q70 0 70 -42t-70 -42h-289q-71 0 -71 42t71 42h107v1002h-288l-16 -230q-5 -67 -43 -67q-45 0 -42 45l19 269q3 44 15.5 55.5t56.5 11.5h676q41 0 55 -13t18 -54l21 -241q2 -23 2 -31q0 -42 -41 -42q-39 0 -45 67l-19 230h-284v-553q214 158 373 158 q148 0 228 -105q73 -95 73 -247q0 -144 -73 -250q-84 -122 -221 -122q-58 0 -58 44q0 40 64 46q201 19 201 290q0 111 -50 180q-56 78 -164 78q-162 0 -373 -175z" glyph-name="afii10051"/>
<glyph unicode="Ѓ" d="M468 84h200q56 0 56 -42t-56 -42h-485q-56 0 -56 42t56 42h200v1002h-200q-56 0 -56 42t56 42h928v-418q0 -56 -42 -56q-43 0 -43 56v334h-558v-1002zM760 1509l-237 -204q-23 -20 -38 -20q-42 0 -42 43q0 19 25 41l236 204q23 20 39 20q42 0 42 -43q0 -19 -25 -41z" glyph-name="afii10052"/>
<glyph unicode="Є" d="M211 649h526q57 0 57 -39q0 -45 -57 -45h-526v-49q0 -189 132 -327t320 -138q201 0 359 189q18 21 38 21q40 0 40 -39q0 -91 -177 -178q-156 -77 -260 -77q-214 0 -375 161.5t-161 375.5v171q0 217 140 368q144 154 359 154q208 0 358 -142v59q0 56 42 56t42 -56v-233 q0 -57 -42 -57q-39 0 -42 51q-7 107 -132 177q-109 61 -225 61q-220 0 -343 -204q-73 -121 -73 -234v-26z" glyph-name="afii10053"/>
<glyph unicode="Ѕ" d="M915 1086v28q0 56 42 56t42 -56v-214q0 -56 -42 -56q-39 0 -42 51q-6 102 -105 164q-87 54 -195 54q-120 0 -205 -59q-98 -67 -98 -181q0 -112 108 -171q67 -37 207 -60q180 -30 241 -57q176 -79 176 -271q0 -166 -134 -262q-119 -85 -291 -85q-219 0 -350 137v-48 q0 -56 -42 -56t-42 56v232q0 57 42 57q39 0 42 -51q6 -117 125 -185q101 -58 225 -58q134 0 230 64q111 74 111 202q0 138 -139 199q-50 22 -200 47q-179 30 -266 83q-127 78 -127 229q0 152 119 241q108 81 265 81q176 0 303 -111z" glyph-name="afii10054"/>
<glyph unicode="І" d="M657 1086v-1002h288q56 0 56 -42t-56 -42h-660q-56 0 -56 42t56 42h288v1002h-288q-56 0 -56 42t56 42h660q56 0 56 -42t-56 -42h-288z" glyph-name="afii10055"/>
<glyph unicode="Ї" d="M657 1086v-1002h288q56 0 56 -42t-56 -42h-660q-56 0 -56 42t56 42h288v1002h-288q-56 0 -56 42t56 42h660q56 0 56 -42t-56 -42h-288zM482 1414q0 -34 -24 -57.5t-58 -23.5q-33 0 -57 24t-24 57q0 34 23.5 58t57.5 24t58 -24t24 -58zM911 1414q0 -34 -24 -57.5 t-58 -23.5t-57.5 23.5t-23.5 57.5t23.5 58t57.5 24t58 -24t24 -58z" glyph-name="afii10056"/>
<glyph unicode="Ј" d="M943 1086v-742q0 -159 -113 -268t-273 -109q-183 0 -386 186v310q0 56 42 56q43 0 43 -56l-1 -270q154 -142 302 -142q166 0 256 141q45 70 45 152v742h-329q-57 0 -57 42t57 42h614q56 0 56 -42t-56 -42h-200z" glyph-name="afii10057"/>
<glyph unicode="Љ" d="M786 1086v-434q402 0 402 -327q0 -104 -51 -186q-55 -90 -150 -116q-84 -23 -279 -23h-106q-70 0 -70 42t70 42h100v1002h-220v-685q0 -434 -266 -434q-146 0 -172 38q-9 13 -9 54v126q0 64 43 64q41 0 41 -58v-124q55 -17 94 -17q185 0 185 351v685h-116q-70 0 -70 42 t70 42h620q70 0 70 -42t-70 -42h-116zM786 564v-480q309 0 309 240t-309 240z" glyph-name="afii10058"/>
<glyph unicode="Њ" d="M547 565h-336v-481h65q56 0 56 -42t-56 -42h-220q-56 0 -56 42t56 42h71v1002h-53q-56 0 -56 42t56 42h202q56 0 56 -42t-56 -42h-65v-436h336v436h-64q-57 0 -57 42t57 42h261q56 0 56 -42t-56 -42h-112v-436h133q192 0 312 -65q152 -83 152 -260q0 -143 -99 -234 t-243 -91h-404q-57 0 -57 42t57 42h64v481zM632 84h249q110 0 184 64q79 67 79 175q0 134 -135 196q-100 46 -250 46h-127v-481z" glyph-name="afii10059"/>
<glyph unicode="Ћ" d="M491 533q161 158 315 158q137 0 209 -105q63 -91 63 -234v-268h56q70 0 70 -42t-70 -42h-253q-70 0 -70 42t70 42h113v258q0 110 -42 179q-51 84 -154 84q-123 0 -307 -177v-344h98q70 0 70 -42t-70 -42h-290q-71 0 -71 42t71 42h107v1002h-288l-16 -230q-5 -67 -43 -67 q-45 0 -42 45l19 269q3 44 15.5 55.5t56.5 11.5h684q45 0 57 -11.5t15 -55.5l19 -269q3 -45 -42 -45q-39 0 -44 67l-16 230h-290v-553z" glyph-name="afii10060"/>
<glyph unicode="Ќ" d="M1041 1089q-89 0 -146 -64q-21 -24 -91 -144q-129 -222 -176 -243q125 -50 231 -260l149 -294h124q70 0 70 -42t-70 -42h-121q-37 0 -49.5 7.5t-29.5 40.5l-150 294q-68 133 -129 182q-76 61 -208 61h-64v-501h109q71 0 71 -42t-71 -42h-301q-70 0 -70 42t70 42h107v1002 h-107q-70 0 -70 42t70 42h301q71 0 71 -42t-71 -42h-109v-415h64q107 0 175 78q41 47 112 179q67 125 118 174q71 69 195 69q52 0 65 -10q16 -13 16 -61v-111q0 -69 -42 -69q-43 0 -43 65v104zM803 1509l-237 -204q-23 -20 -38 -20q-42 0 -42 43q0 19 25 41l236 204 q23 20 39 20q42 0 42 -43q0 -19 -25 -41z" glyph-name="afii10061"/>
<glyph unicode="Ў" d="M270 1086l362 -667l362 667h-77q-71 0 -71 42t71 42h224q70 0 70 -42t-70 -42h-50l-501 -918q-110 -202 -260 -202q-130 0 -153 39q-9 15 -9 55v121q0 69 41 69q43 0 43 -64v-121q51 -14 86 -14q63 0 109 50q26 28 68 106l65 120l-412 759h-54q-70 0 -70 42t70 42h233 q70 0 70 -42t-70 -42h-77zM392 1563q37 0 42 -48q7 -70 79 -111q62 -36 138 -36q78 0 138 35q70 40 78 112q5 48 42 48q43 0 43 -46q0 -109 -100 -176q-87 -58 -201 -58t-201 58q-100 67 -100 176q0 46 42 46z" glyph-name="afii10062"/>
<glyph unicode="Џ" d="M572 0h-416q-56 0 -56 42t56 42h95v1002h-95q-56 0 -56 42t56 42h292q56 0 56 -42t-56 -42h-113v-1002h558v1002h-113q-56 0 -56 42t56 42h292q56 0 56 -42t-56 -42h-95v-1002h95q56 0 56 -42t-56 -42h-416v-219q0 -67 -41 -67q-43 0 -43 64v222z" glyph-name="afii10145"/>
<glyph unicode="А" d="M891 391h-552l-113 -307h161q56 0 56 -42t-56 -42h-314q-56 0 -56 42t56 42h65l371 1002h-248q-56 0 -56 42t56 42h423l410 -1086h65q56 0 56 -42t-56 -42h-313q-57 0 -57 42t57 42h160zM859 475l-232 611h-31l-225 -611h488z" glyph-name="afii10017"/>
<glyph unicode="Б" d="M1029 1170v-289q0 -56 -43 -56q-42 0 -42 56v205h-604v-436h309q193 0 312 -65q152 -83 152 -260q0 -143 -99 -234t-243 -91h-628q-56 0 -56 42t56 42h113v1002h-113q-56 0 -56 42t56 42h886zM340 84h425q108 0 183 65q80 68 80 174q0 133 -136 196q-100 46 -250 46h-302 v-481z" glyph-name="afii10018"/>
<glyph unicode="В" d="M256 84v1002h-113q-56 0 -56 42t56 42h528q144 0 245 -78q109 -85 109 -225q0 -154 -165 -249q253 -91 253 -297q0 -175 -162 -272q-82 -49 -180 -49h-628q-56 0 -56 42t56 42h113zM340 650h297q195 0 269 116q34 53 34 108q0 97 -88 158q-77 54 -179 54h-333v-436z M340 84h425q159 0 232 125q31 53 31 110q0 72 -51 132q-46 55 -117 83q-79 31 -218 31h-302v-481z" glyph-name="afii10019"/>
<glyph unicode="Г" d="M468 84h200q56 0 56 -42t-56 -42h-485q-56 0 -56 42t56 42h200v1002h-200q-56 0 -56 42t56 42h928v-418q0 -56 -42 -56q-43 0 -43 56v334h-558v-1002z" glyph-name="afii10020"/>
<glyph unicode="Д" d="M1070 0h-912v-221q0 -65 -43 -65q-41 0 -41 68v233q0 68 47 71q80 5 152 75q66 63 94 145q30 87 30 268v512h-115q-70 0 -70 42t70 42h801q71 0 71 -42t-71 -42h-87v-1002h87q46 0 58.5 -12t12.5 -57v-233q0 -68 -41 -68q-43 0 -43 65v221zM481 1086v-512 q0 -364 -171 -490h601v1002h-430z" glyph-name="afii10021"/>
<glyph unicode="Е" d="M341 565v-481h646v248q0 56 42 56t42 -56v-332h-927q-56 0 -56 42t56 42h113v1002h-113q-56 0 -56 42t56 42h883v-289q0 -56 -42 -56t-42 56v205h-602v-437h301v95q0 56 43 56q42 0 42 -56v-274q0 -56 -42 -56q-43 0 -43 56v95h-301z" glyph-name="afii10022"/>
<glyph unicode="Ж" d="M656 1086v-415h22q63 0 115 100q0 12 72.5 159.5t87.5 165.5q60 74 172 74q40 0 51 -16q10 -12 10 -54v-115q0 -65 -39 -65q-45 0 -45 59v110q-53 -1 -103 -80q-18 -28 -63 -127q-92 -201 -140 -246q105 -60 186 -258l120 -294h62q71 0 71 -42t-71 -42h-65q-38 0 -51 8.5 t-27 43.5l-118 290q-99 243 -217 243h-30v-501h65q71 0 71 -42t-71 -42h-213q-70 0 -70 42t70 42h64v501h-30q-116 0 -215 -243l-118 -290q-14 -35 -27 -43.5t-51 -8.5h-66q-70 0 -70 42t70 42h63l120 294q82 201 185 258q-46 48 -139 246q-51 109 -62 126q-51 81 -104 81 v-110q0 -58 -44 -58q-41 0 -41 64v115q0 70 56 70q112 0 174 -74q29 -34 96 -177q60 -127 70 -145q59 -103 111 -103h22v415h-64q-70 0 -70 42t70 42h213q71 0 71 -42t-71 -42h-65z" glyph-name="afii10024"/>
<glyph unicode="З" d="M826 608q268 -63 268 -293q0 -183 -156 -274q-127 -74 -323 -74q-103 0 -280 45q-221 56 -221 130q0 48 43 48q14 0 37 -13q126 -73 206 -97q96 -29 226 -29q151 0 251 56q124 70 124 210q0 88 -65 149q-59 56 -149 73t-265 17h-58q-71 0 -71 42q0 43 71 43h58 q434 0 434 242q0 118 -111 180q-89 50 -218 50q-151 0 -250.5 -80t-127.5 -227q-8 -43 -39 -43q-39 0 -39 39q0 19 9 92q4 32 4 64q0 33 -3 99l-4 88q-2 39 38 39q21 0 43 -59.5t37 -59.5q10 0 28 15q141 117 313 117q168 0 280 -70q133 -83 133 -241q0 -196 -223 -278z" glyph-name="afii10025"/>
<glyph unicode="И" d="M209 84v1002h-113q-56 0 -56 42t56 42h352q57 0 57 -42t-57 -42h-155v-965l620 1049h220q56 0 56 -42t-56 -42h-113v-1002h113q56 0 56 -42t-56 -42h-310q-56 0 -56 42t56 42h113v963l-619 -1047h-221q-56 0 -56 42t56 42h113z" glyph-name="afii10026"/>
<glyph unicode="Й" d="M209 84v1002h-113q-56 0 -56 42t56 42h352q57 0 57 -42t-57 -42h-155v-965l620 1049h220q56 0 56 -42t-56 -42h-113v-1002h113q56 0 56 -42t-56 -42h-310q-56 0 -56 42t56 42h113v963l-619 -1047h-221q-56 0 -56 42t56 42h113zM392 1563q37 0 42 -48q7 -70 79 -111 q62 -36 138 -36q78 0 138 35q70 40 78 112q5 48 42 48q43 0 43 -46q0 -109 -100 -176q-87 -58 -201 -58t-201 58q-100 67 -100 176q0 46 42 46z" glyph-name="afii10027"/>
<glyph unicode="К" d="M1041 1089q-89 0 -146 -64q-21 -24 -91 -144q-129 -222 -176 -243q125 -50 231 -260l149 -294h124q70 0 70 -42t-70 -42h-121q-37 0 -49.5 7.5t-29.5 40.5l-150 294q-68 133 -129 182q-76 61 -208 61h-64v-501h109q71 0 71 -42t-71 -42h-301q-70 0 -70 42t70 42h107v1002 h-107q-70 0 -70 42t70 42h301q71 0 71 -42t-71 -42h-109v-415h64q107 0 175 78q41 47 112 179q67 125 118 174q71 69 195 69q52 0 65 -10q16 -13 16 -61v-111q0 -69 -42 -69q-43 0 -43 65v104z" glyph-name="afii10028"/>
<glyph unicode="Л" d="M997 1086v-1002h88q70 0 70 -42t-70 -42h-262q-70 0 -70 42t70 42h89v1002h-430v-685q0 -434 -273 -434q-137 0 -164 38q-10 14 -10 54v125q0 66 43 66q41 0 41 -59v-129q43 -12 77 -12q202 0 202 351v685h-116q-70 0 -70 42t70 42h803q70 0 70 -42t-70 -42h-88z" glyph-name="afii10029"/>
<glyph unicode="М" d="M670 351h-96l-323 735h-16v-1002h155q56 0 56 -42t-56 -42h-310q-56 0 -56 42t56 42h71v1002h-53q-56 0 -56 42t56 42h206l318 -724l313 724h206q57 0 57 -42t-57 -42h-52v-1002h70q57 0 57 -42t-57 -42h-309q-57 0 -57 42t57 42h155v1002h-18z" glyph-name="afii10030"/>
<glyph unicode="Н" d="M899 566h-557v-482h113q56 0 56 -42t-56 -42h-292q-56 0 -56 42t56 42h95v1002h-52q-57 0 -57 42t57 42h249q56 0 56 -42t-56 -42h-113v-436h557v436h-112q-56 0 -56 42t56 42h249q57 0 57 -42t-57 -42h-52v-1002h95q56 0 56 -42t-56 -42h-292q-56 0 -56 42t56 42h112 v482z" glyph-name="afii10031"/>
<glyph unicode="О" d="M1024 582q0 -162 -62 -300q-67 -151 -193 -235q-120 -80 -257 -80q-231 0 -378 197q-134 179 -134 418t133 418q147 197 379 197q145 0 265 -86q114 -81 179 -217q68 -142 68 -312zM939 582q0 203 -110 358q-123 173 -317 173t-317 -174q-111 -157 -111 -357 q0 -201 111 -357q124 -174 317 -174q194 0 317 173q110 155 110 358z" glyph-name="afii10032"/>
<glyph unicode="П" d="M892 1086h-557v-1002h113q56 0 56 -42t-56 -42h-292q-56 0 -56 42t56 42h95v1002h-95q-56 0 -56 42t56 42h916q56 0 56 -42t-56 -42h-95v-1002h95q56 0 56 -42t-56 -42h-292q-56 0 -56 42t56 42h112v1002z" glyph-name="afii10033"/>
<glyph unicode="Р" d="M432 480v-396h288q56 0 56 -42t-56 -42h-485q-56 0 -56 42t56 42h113v1002h-113q-56 0 -56 42t56 42h488q159 0 271 -89q121 -97 121 -252q0 -158 -121 -248q-75 -56 -155 -82q-58 -19 -144 -19h-263zM432 564h268q84 0 165 37q88 40 129 106q37 59 37 122q0 115 -94 189 q-87 68 -206 68h-299v-522z" glyph-name="afii10034"/>
<glyph unicode="С" d="M984 1055v59q0 56 42 56t42 -56v-233q0 -57 -42 -57q-39 0 -42 51q-5 84 -91 149q-117 89 -264 89q-96 0 -183 -43q-65 -32 -102 -76q-133 -157 -133 -331v-147q0 -188 132.5 -326.5t319.5 -138.5q201 0 359 189q18 21 38 21q40 0 40 -39q0 -22 -43 -70 q-166 -185 -392 -185q-243 0 -419 220q-119 149 -119 317v171q0 135 68.5 260.5t182 193.5t248.5 68q208 0 358 -142z" glyph-name="afii10035"/>
<glyph unicode="Т" d="M656 1086v-1002h218q56 0 56 -42t-56 -42h-521q-56 0 -56 42t56 42h218v1002h-344v-291q0 -57 -42 -57t-42 57v375h941v-375q0 -57 -42 -57t-42 57v291h-344z" glyph-name="afii10036"/>
<glyph unicode="У" d="M270 1086l362 -667l362 667h-77q-71 0 -71 42t71 42h224q70 0 70 -42t-70 -42h-50l-501 -918q-110 -202 -260 -202q-130 0 -153 39q-9 15 -9 55v121q0 69 41 69q43 0 43 -64v-121q51 -14 86 -14q63 0 109 50q26 28 68 106l65 120l-412 759h-54q-70 0 -70 42t70 42h233 q70 0 70 -42t-70 -42h-77z" glyph-name="afii10037"/>
<glyph unicode="Ф" d="M656 1086v-92q205 0 333 -100q141 -109 141 -309q0 -202 -140 -310q-127 -99 -334 -99v-92h82q74 0 74 -40q0 -44 -74 -44h-247q-79 0 -79 41q0 43 79 43h81v92q-207 0 -333 99q-140 109 -140 310t140 310q126 99 333 99v92h-75q-85 0 -85 44q0 40 95 40h231q75 0 75 -42 t-75 -42h-82zM572 909q-265 -15 -351 -175q-38 -71 -38 -149q0 -160 119 -244q101 -72 270 -80v648zM656 261q169 8 270 80q119 84 119 244q0 159 -120 244q-100 71 -269 80v-648z" glyph-name="afii10038"/>
<glyph unicode="Х" d="M665 599l399 -515h32q56 0 56 -42t-56 -42h-270q-56 0 -56 42t56 42h134l-347 446l-343 -446h134q56 0 56 -42t-56 -42h-268q-56 0 -56 42q0 31 26 39q10 3 61 3l394 515l-376 487h-31q-56 0 -56 42t56 42h229q57 0 57 -42t-57 -42h-94l324 -419l322 419h-94 q-57 0 -57 42t57 42h230q56 0 56 -42t-56 -42h-32z" glyph-name="afii10039"/>
<glyph unicode="Ц" d="M966 84h107q44 0 57.5 -13.5t13.5 -56.5v-233q0 -67 -41 -67q-43 0 -43 64v222h-915q-56 0 -56 42t56 42h95v1002h-95q-56 0 -56 42t56 42h292q56 0 56 -42t-56 -42h-113v-1002h558v1002h-113q-56 0 -56 42t56 42h291q57 0 57 -42t-57 -42h-94v-1002z" glyph-name="afii10040"/>
<glyph unicode="Ч" d="M874 84v467l-74 -54q-141 -103 -315 -103q-160 0 -227 93q-57 79 -57 245v354h-90q-70 0 -70 42t70 42h288q70 0 70 -42t-70 -42h-114v-344q0 -132 36 -190q45 -73 168 -73q175 0 385 178v429h-98q-70 0 -70 42t70 42h275q70 0 70 -42t-70 -42h-92v-1002h92q70 0 70 -42 t-70 -42h-417q-70 0 -70 42t70 42h240z" glyph-name="afii10041"/>
<glyph unicode="Ш" d="M992 84v1002h-63q-57 0 -57 42t57 42h192q57 0 57 -42t-57 -42h-45v-1002h83q56 0 56 -42t-56 -42h-1087q-56 0 -56 42t56 42h83v1002h-95q-56 0 -56 42t56 42h242q57 0 57 -42t-57 -42h-63v-1002h334v1002h-63q-56 0 -56 42t56 42h193q56 0 56 -42t-56 -42h-45v-1002 h334z" glyph-name="afii10042"/>
<glyph unicode="Щ" d="M1076 84h94q44 0 57 -13t13 -57v-233q0 -67 -41 -67q-43 0 -43 64v222h-1084q-56 0 -56 42t56 42h83v1002h-95q-56 0 -56 42t56 42h242q57 0 57 -42t-57 -42h-63v-1002h334v1002h-63q-56 0 -56 42t56 42h193q56 0 56 -42t-56 -42h-45v-1002h334v1002h-63q-57 0 -57 42 t57 42h192q57 0 57 -42t-57 -42h-45v-1002z" glyph-name="afii10043"/>
<glyph unicode="Ъ" d="M86 1086v-334q0 -56 -42 -56t-42 56v418h600q56 0 56 -42t-56 -42h-113v-436h245q191 0 311 -66q152 -83 152 -259q0 -145 -97.5 -235t-243.5 -90h-500q-56 0 -56 42t56 42h49v1002h-319zM489 84h361q108 0 183 65q80 68 80 174q0 132 -136 195q-102 47 -250 47h-238 v-481z" glyph-name="afii10044"/>
<glyph unicode="Ы" d="M255 1086v-436h134q193 0 312 -65q152 -83 152 -260q0 -143 -99 -234t-243 -91h-453q-56 0 -56 42t56 42h113v1002h-113q-56 0 -56 42t56 42h310q56 0 56 -42t-56 -42h-113zM255 84h250q108 0 183 65q80 68 80 174q0 133 -135 195q-102 47 -251 47h-127v-481zM1054 1086 v-1002h112q57 0 57 -42t-57 -42h-309q-57 0 -57 42t57 42h112v1002h-112q-57 0 -57 42t57 42h309q57 0 57 -42t-57 -42h-112z" glyph-name="afii10045"/>
<glyph unicode="Ь" d="M340 1086v-436h309q193 0 312 -65q152 -83 152 -260q0 -143 -99 -234t-243 -91h-628q-56 0 -56 42t56 42h113v1002h-113q-56 0 -56 42t56 42h310q56 0 56 -42t-56 -42h-113zM340 84h425q108 0 183 65q80 68 80 174q0 133 -136 196q-100 46 -250 46h-302v-481z" glyph-name="afii10046"/>
<glyph unicode="Э" d="M1018 649h-526q-57 0 -57 -39q0 -45 57 -45h526v-49q0 -190 -130 -327q-133 -138 -322 -138q-201 0 -359 189q-18 21 -38 21q-40 0 -40 -39q0 -91 177 -178q156 -77 260 -77q214 0 375 161.5t161 375.5v171q0 217 -140 368q-144 154 -359 154q-208 0 -358 -142v59 q0 56 -42 56t-42 -56v-233q0 -57 42 -57q39 0 42 51q7 107 132 177q109 61 225 61q220 0 343 -204q73 -121 73 -234v-26z" glyph-name="afii10047"/>
<glyph unicode="Ю" d="M435 650v29q0 216 87 354q104 164 308 164q209 0 307 -163q80 -132 80 -355v-193q0 -222 -80 -355q-98 -164 -306 -164q-211 0 -312 162q-84 134 -84 357v80h-220v-482h89q56 0 56 -42t-56 -42h-226q-56 0 -56 42t56 42h53v1002h-53q-56 0 -56 42t56 42h226q56 0 56 -42 t-56 -42h-89v-436h220zM519 679v-193q0 -180 64 -293q80 -142 246 -142q303 0 303 435v193q0 434 -302 434q-167 0 -247 -141q-64 -112 -64 -293z" glyph-name="afii10048"/>
<glyph unicode="Я" d="M888 522v-438h-155q-57 0 -57 -42t57 -42h352q56 0 56 42t-56 42h-113v1002h113q56 0 56 42t-56 42h-508q-145 0 -255 -88q-117 -94 -117 -236q0 -204 289 -302q-111 -77 -205 -209q-40 -57 -154 -251h-64q-56 0 -56 -42t56 -42h112q122 218 180 297q116 158 258 225h267 zM888 606h-229q-229 0 -330 134q-40 53 -40 110q0 100 98 171q89 65 192 65h309v-480z" glyph-name="afii10049"/>
<glyph unicode="а" d="M856 0v121q-183 -154 -391 -154q-133 0 -221 64q-100 72 -100 200q0 156 150 238q120 66 289 66q120 0 273 -31v136q0 90 -88 135q-69 36 -168 36q-97 0 -275 -57q-31 -10 -41 -10q-39 0 -39 42q0 17 10 27q14 15 113 41q159 42 236 42q128 0 225 -62q112 -72 112 -194 v-556h112q57 0 57 -42t-57 -42h-197zM856 418q-115 33 -264 33q-182 0 -286 -79q-78 -59 -78 -141q0 -91 74 -139q63 -41 159 -41q205 0 395 182v185z" glyph-name="afii10065"/>
<glyph unicode="б" d="M219 701q150 195 404 195q216 0 350 -123q139 -128 139 -342q0 -213 -141 -340q-135 -124 -350 -124q-142 0 -256 59q-124 64 -184 184q-53 106 -53 301q0 213 15 296q56 312 376 312h191q148 0 169 61q17 50 48 50q47 0 47 -49q0 -146 -254 -146h-201q-197 0 -257 -131 q-29 -63 -43 -203zM220 433q0 -172 116 -277q111 -102 285 -102q173 0 286.5 103.5t113.5 275.5q0 171 -116 276q-111 102 -284 102q-174 0 -286 -101q-115 -104 -115 -277z" glyph-name="afii10066"/>
<glyph unicode="в" d="M292 84v697h-113q-56 0 -56 42q0 43 56 43h456q341 0 341 -216q0 -135 -176 -173q265 -35 265 -230q0 -247 -330 -247h-556q-56 0 -56 42t56 42h113zM376 515h225q291 0 291 140q0 84 -94 111q-52 15 -162 15h-260v-266zM376 84h352q252 0 252 162q0 124 -137 164 q-72 21 -237 21h-230v-347z" glyph-name="afii10067"/>
<glyph unicode="г" d="M493 84h200q56 0 56 -42t-56 -42h-485q-56 0 -56 42t56 42h200v697h-200q-56 0 -56 42q0 43 56 43h880v-419q0 -56 -43 -56q-42 0 -42 56v334h-510v-697z" glyph-name="afii10068"/>
<glyph unicode="д" d="M1055 0h-881v-148q0 -63 -43 -63q-41 0 -41 67v159q0 40 7 52q9 16 45 19q134 9 202 110q60 88 60 228v357h-110q-71 0 -71 42q0 43 71 43h775q70 0 70 -43q0 -42 -70 -42h-83v-697h83q44 0 57 -13t13 -56v-159q0 -67 -41 -67q-43 0 -43 63v148zM488 781v-357 q0 -247 -142 -340h555v697h-413z" glyph-name="afii10069"/>
<glyph unicode="е" d="M1069 413h-856q22 -167 136 -264.5t284 -97.5q221 0 365 113q19 15 33 15q40 0 40 -42q0 -16 -16 -33q-61 -63 -198 -103q-117 -34 -224 -34q-215 0 -358 133q-147 137 -147 351q0 196 139 323q134 122 332 122q214 0 343 -134.5t127 -348.5zM984 498q-25 144 -132 230 q-105 83 -253 83t-252 -84q-107 -85 -133 -229h770z" glyph-name="afii10070"/>
<glyph unicode="ж" d="M657 781v-274h20q50 0 104 68q8 10 72 109q69 106 97 132q55 50 149 50q43 0 56.5 -14t13.5 -57v-70q0 -64 -41 -64q-44 0 -44 57v63q-57 0 -100 -46q-19 -20 -65 -95q-81 -132 -122 -161q94 -52 174 -197l110 -198h57q70 0 70 -42t-70 -42h-54q-38 0 -50 7t-30 39 l-110 198q-99 179 -209 179h-28v-339h58q71 0 71 -42t-71 -42h-202q-71 0 -71 42t71 42h59v339h-29q-110 0 -209 -179l-110 -198q-17 -31 -29.5 -38.5t-47.5 -7.5h-57q-70 0 -70 42t70 42h57l111 198q75 134 173 197q-40 32 -122 161q-48 76 -66 95q-43 46 -99 46v-63 q0 -57 -42 -57q-43 0 -43 64v70q0 71 57 71q99 0 157 -47q42 -34 103 -135q107 -177 175 -177h21v274h-59q-71 0 -71 42q0 43 71 43h202q71 0 71 -43q0 -42 -71 -42h-58z" glyph-name="afii10072"/>
<glyph unicode="з" d="M864 458l61 -14q72 -17 120.5 -75.5t48.5 -131.5q0 -270 -460 -270q-109 0 -273 34q-217 45 -217 111q0 46 42 46q13 0 35 -11q195 -96 421 -96q131 0 223 32q138 48 138 154q0 117 -189 153q-84 16 -276 16h-55q-70 0 -70 39q0 46 70 46h55q422 0 422 167 q0 153 -324 153q-307 0 -355 -198q-13 -54 -44 -54q-37 0 -37 44v221q0 72 41 72q43 0 43 -72v-63q129 135 372 135q147 0 252 -46q142 -62 142 -191q0 -142 -186 -201z" glyph-name="afii10073"/>
<glyph unicode="и" d="M314 0h-200q-56 0 -56 42t56 42h101v697h-101q-56 0 -56 42q0 43 56 43h298q56 0 56 -43q0 -42 -56 -42h-113v-660l605 745h211q56 0 56 -43q0 -42 -56 -42h-113v-697h113q56 0 56 -42t-56 -42h-310q-56 0 -56 42t56 42h113v659z" glyph-name="afii10074"/>
<glyph unicode="й" d="M314 0h-200q-56 0 -56 42t56 42h101v697h-101q-56 0 -56 42q0 43 56 43h298q56 0 56 -43q0 -42 -56 -42h-113v-660l605 745h211q56 0 56 -43q0 -42 -56 -42h-113v-697h113q56 0 56 -42t-56 -42h-310q-56 0 -56 42t56 42h113v659zM372 1258q37 0 42 -48q7 -70 79 -111 q62 -36 138 -36q78 0 138 35q70 40 78 112q5 48 42 48q43 0 43 -46q0 -109 -100 -176q-87 -58 -201 -58t-201 58q-100 67 -100 176q0 46 42 46z" glyph-name="afii10075"/>
<glyph unicode="к" d="M1014 781q-84 0 -133 -38q-20 -16 -96 -108q-106 -129 -160 -163q74 -19 127 -71q29 -28 92 -118l140 -199h118q70 0 70 -42t-70 -42h-118q-51 0 -68 26q-2 5 -10 16l-142 210q-65 96 -137 133.5t-188 37.5h-62v-339h102q70 0 70 -42t-70 -42h-289q-70 0 -70 42t70 42 h102v697h-102q-70 0 -70 42q0 43 70 43h289q70 0 70 -43q0 -42 -70 -42h-102v-274h62q86 0 137 33q36 23 101 102q111 135 143 161q78 63 196 63q47 0 63 -11q19 -14 19 -60v-115q0 -60 -43 -60q-41 0 -41 53v108z" glyph-name="afii10076"/>
<glyph unicode="л" d="M985 781v-697h84q70 0 70 -42t-70 -42h-251q-70 0 -70 42t70 42h83v697h-413v-483q0 -331 -273 -331q-130 0 -155 38q-9 13 -9 54v83q0 63 45 63q39 0 39 -58v-82q46 -11 82 -11q186 0 186 244v483h-110q-70 0 -70 42q0 43 70 43h776q70 0 70 -43q0 -42 -70 -42h-84z" glyph-name="afii10077"/>
<glyph unicode="м" d="M665 84h-96l-323 697h-4v-697h155q56 0 56 -42t-56 -42h-310q-56 0 -56 42t56 42h71v697h-53q-56 0 -56 42q0 43 56 43h194l318 -687l313 687h194q57 0 57 -43q0 -42 -57 -42h-52v-697h70q57 0 57 -42t-57 -42h-309q-57 0 -57 42t57 42h154v697h-5z" glyph-name="afii10078"/>
<glyph unicode="н" d="M887 413h-545v-329h95q56 0 56 -42t-56 -42h-274q-56 0 -56 42t56 42h95v697h-65q-56 0 -56 42q0 43 56 43h214q56 0 56 -43q0 -42 -56 -42h-65v-283h545v283h-64q-57 0 -57 42q0 43 57 43h213q56 0 56 -43q0 -42 -56 -42h-65v-697h95q56 0 56 -42t-56 -42h-274 q-56 0 -56 42t56 42h95v329z" glyph-name="afii10079"/>
<glyph unicode="о" d="M1084 431q0 -197 -136 -330.5t-333 -133.5q-199 0 -334.5 132.5t-135.5 331.5q0 198 136 331.5t334 133.5t333.5 -133.5t135.5 -331.5zM999 431q0 163 -111 271.5t-274 108.5t-274 -109t-111 -271t111.5 -271t273.5 -109q163 0 274 109t111 271z" glyph-name="afii10080"/>
<glyph unicode="п" d="M887 781h-545v-697h95q56 0 56 -42t-56 -42h-274q-56 0 -56 42t56 42h95v697h-65q-56 0 -56 42q0 43 56 43h843q56 0 56 -43q0 -42 -56 -42h-65v-697h95q56 0 56 -42t-56 -42h-274q-56 0 -56 42t56 42h95v697z" glyph-name="afii10081"/>
<glyph unicode="р" d="M298 866v-153q151 183 364 183q269 0 391 -219q58 -104 58 -218q0 -189 -129 -313.5t-319 -124.5q-225 0 -365 183v-506h204q56 0 56 -42t-56 -42h-401q-56 0 -56 42t56 42h113v1083h-113q-56 0 -56 43q0 42 56 42h197zM1026 459q0 152 -105 252t-258 100 q-152 0 -257 -99q-108 -102 -108 -253q0 -152 106 -252.5t259 -100.5t258 100.5t105 252.5z" glyph-name="afii10082"/>
<glyph unicode="с" d="M965 781v28q0 57 42 57q43 0 43 -57v-190q0 -57 -43 -57q-38 0 -42 50q-8 97 -125 153q-96 46 -204 46q-173 0 -277 -106t-104 -279q0 -170 106.5 -272.5t277.5 -102.5q226 0 383 152q21 20 37 20q40 0 40 -40q0 -43 -101 -109q-163 -107 -363 -107q-205 0 -334.5 126.5 t-129.5 331.5q0 207 131.5 339t338.5 132q193 0 324 -115z" glyph-name="afii10083"/>
<glyph unicode="т" d="M656 781v-697h218q57 0 57 -42t-57 -42h-520q-57 0 -57 42t57 42h218v697h-322v-291q0 -56 -42 -56t-42 56v376h897v-376q0 -56 -42 -56q-43 0 -43 56v291h-322z" glyph-name="afii10084"/>
<glyph unicode="у" d="M276 781l355 -644l352 644h-74q-70 0 -70 42q0 43 70 43h215q70 0 70 -43q0 -42 -70 -42h-47l-486 -889q-108 -198 -244 -198q-119 0 -153 36q-14 15 -14 59v116q0 68 42 68t42 -63v-123q37 -9 69 -9q70 0 114 45q26 26 70 107l64 117l-401 734h-50q-70 0 -70 42 q0 43 70 43h223q70 0 70 -43q0 -42 -70 -42h-77z" glyph-name="afii10085"/>
<glyph unicode="ф" d="M657 856q72 40 139 40q155 0 243 -164q71 -133 71 -303q0 -176 -72 -302q-88 -154 -251 -154q-72 0 -130 27v-237h180q69 0 69 -42q0 -41 -69 -41h-444q-70 0 -70 41q0 42 70 42h180v237q-56 -27 -129 -27q-164 0 -252 153q-73 127 -73 303q0 171 71 304q87 163 245 163 q69 0 138 -40v286l-121 -9q-13 -1 -29 -1q-47 0 -47 43q0 40 70 45l137 10q14 1 29 1q45 0 45 -70v-305zM657 113q59 -56 124 -56q121 0 186 132q52 105 52 240q0 137 -50 244q-65 138 -186 138q-73 0 -126 -53v-645zM573 112v646q-46 53 -123 53q-123 0 -188 -136 q-52 -108 -52 -245q0 -135 51 -240q65 -133 186 -133q76 0 126 55z" glyph-name="afii10086"/>
<glyph unicode="х" d="M672 453l385 -369q73 0 73 -42t-57 -42h-270q-57 0 -57 42t57 42h139l-327 313l-325 -313h140q56 0 56 -42t-56 -42h-273q-56 0 -56 42q0 29 25 39q8 3 47 3l385 369l-342 328q-70 0 -70 43q0 42 57 42h229q56 0 56 -43q0 -42 -56 -42h-100l283 -273l285 273h-100 q-57 0 -57 43q0 42 57 42h229q56 0 56 -43q0 -28 -24 -38q-10 -4 -46 -4z" glyph-name="afii10087"/>
<glyph unicode="ц" d="M1054 0h-921q-56 0 -56 42t56 42h95v697h-65q-56 0 -56 42q0 43 56 43h214q56 0 56 -43q0 -42 -56 -42h-65v-697h545v697h-64q-57 0 -57 42q0 43 57 43h213q56 0 56 -43q0 -42 -56 -42h-65v-697h127q44 0 57.5 -13.5t13.5 -56.5v-157q0 -68 -42 -68q-43 0 -43 65v146z " glyph-name="afii10088"/>
<glyph unicode="ч" d="M877 84v314q-166 -116 -373 -116q-143 0 -209 59q-70 63 -70 204v236h-85q-70 0 -70 42q0 43 70 43h276q71 0 71 -43q0 -42 -71 -42h-107v-236q0 -102 47 -143q44 -37 148 -37q173 0 373 129v287h-89q-71 0 -71 42q0 43 71 43h261q70 0 70 -43q0 -42 -70 -42h-87v-697h87 q70 0 70 -42t-70 -42h-399q-71 0 -71 42t71 42h227z" glyph-name="afii10089"/>
<glyph unicode="ш" d="M991 84v697h-47q-56 0 -56 42q0 43 56 43h177q57 0 57 -43q0 -42 -57 -42h-46v-697h64q57 0 57 -42t-57 -42h-1050q-56 0 -56 42t56 42h65v697h-47q-56 0 -56 42q0 43 56 43h177q57 0 57 -43q0 -42 -57 -42h-46v-697h334v697h-46q-56 0 -56 42q0 43 56 43h177 q56 0 56 -43q0 -42 -56 -42h-46v-697h334z" glyph-name="afii10090"/>
<glyph unicode="щ" d="M1075 84h83q45 0 58 -12.5t13 -57.5v-157q0 -68 -42 -68q-43 0 -43 65v146h-1055q-56 0 -56 42t56 42h65v697h-47q-56 0 -56 42q0 43 56 43h177q57 0 57 -43q0 -42 -57 -42h-46v-697h334v697h-46q-56 0 -56 42q0 43 56 43h177q56 0 56 -43q0 -42 -56 -42h-46v-697h334 v697h-47q-56 0 -56 42q0 43 56 43h177q57 0 57 -43q0 -42 -57 -42h-46v-697z" glyph-name="afii10091"/>
<glyph unicode="ъ" d="M159 781v-205q0 -56 -42 -56t-42 56v290h585q56 0 56 -43q0 -42 -56 -42h-113v-283h229q388 0 388 -238q0 -160 -121 -219q-84 -41 -267 -41h-362q-56 0 -56 42t56 42h49v697h-304zM547 84h225q140 0 201 22q105 38 105 150q0 106 -110 139q-60 18 -199 18h-222v-329z " glyph-name="afii10092"/>
<glyph unicode="ы" d="M1054 781v-697h112q57 0 57 -42t-57 -42h-309q-56 0 -56 42t56 42h112v697h-112q-56 0 -56 42q0 43 56 43h309q57 0 57 -43q0 -42 -57 -42h-112zM213 781v-283h197q388 0 388 -238q0 -160 -121 -219q-84 -41 -267 -41h-330q-56 0 -56 42t56 42h49v697h-45q-57 0 -57 42 q0 43 57 43h242q56 0 56 -43q0 -42 -56 -42h-113zM213 84h193q140 0 202 22q104 37 104 150q0 106 -110 139q-60 18 -199 18h-190v-329z" glyph-name="afii10093"/>
<glyph unicode="ь" d="M355 781v-283h251q388 0 388 -238q0 -160 -121 -219q-84 -41 -267 -41h-384q-56 0 -56 42t56 42h49v697h-45q-57 0 -57 42q0 43 57 43h242q56 0 56 -43q0 -42 -56 -42h-113zM355 84h247q139 0 200 22q105 38 105 150q0 105 -111 139q-59 18 -198 18h-243v-329z" glyph-name="afii10094"/>
<glyph unicode="э" d="M972 468h-443q-57 0 -57 -42t57 -42h443q-19 -155 -122.5 -244t-259.5 -89q-227 0 -383 152q-21 20 -37 20q-40 0 -40 -40q0 -84 196 -156q164 -60 268 -60q205 0 334.5 126.5t129.5 331.5q0 207 -131.5 339t-338.5 132q-193 0 -324 -115v28q0 57 -42 57q-43 0 -43 -57 v-190q0 -57 43 -57q38 0 42 50q8 96 125 153q95 46 204 46q161 0 260.5 -91.5t118.5 -251.5z" glyph-name="afii10095"/>
<glyph unicode="ю" d="M442 413h-171v-329h113q56 0 56 -42t-56 -42h-292q-56 0 -56 42t56 42h95v697h-52q-57 0 -57 42q0 43 57 43h249q56 0 56 -43q0 -42 -56 -42h-113v-283h174q20 167 113 276q103 122 264 122q179 0 280 -144q90 -128 90 -314q0 -189 -92 -321q-104 -150 -285 -150 q-172 0 -274 142q-87 121 -99 304zM526 424q0 -149 69 -253q80 -120 222 -120q144 0 224 124q67 104 67 258q0 152 -67 256q-79 122 -223 122q-148 0 -226 -125q-66 -105 -66 -262z" glyph-name="afii10096"/>
<glyph unicode="я" d="M865 347h-242q-289 -118 -329 -347h-116q-47 0 -47 42t47 42h51q65 186 281 281q-232 49 -232 256q0 245 298 245h464q47 0 47 -43q0 -42 -47 -42h-90v-697h90q47 0 47 -42t-47 -42h-298q-47 0 -47 42t47 42h123v263zM865 431v350h-271q-231 0 -231 -163q0 -117 96 -159 q64 -28 200 -28h206z" glyph-name="afii10097"/>
<glyph unicode="ё" d="M1069 413h-856q22 -167 136 -264.5t284 -97.5q221 0 365 113q19 15 33 15q40 0 40 -42q0 -16 -16 -33q-61 -63 -198 -103q-117 -34 -224 -34q-215 0 -358 133q-147 137 -147 351q0 196 139 323q134 122 332 122q214 0 343 -134.5t127 -348.5zM984 498q-25 144 -132 230 q-105 83 -253 83t-252 -84q-107 -85 -133 -229h770zM486 1146q0 -34 -24 -57.5t-58 -23.5q-33 0 -57 24t-24 57q0 34 23.5 58t57.5 24t58 -24t24 -58zM915 1146q0 -34 -24 -57.5t-58 -23.5t-57.5 23.5t-23.5 57.5t23.5 58t57.5 24t58 -24t24 -58z" glyph-name="afii10071"/>
<glyph unicode="ђ" d="M419 616v-532h94q57 0 57 -42t-57 -42h-273q-56 0 -56 42t56 42h94v903h-135q-57 0 -57 43q0 41 57 41h135v99h-112q-57 0 -57 42q0 43 57 43h197v-184h317q57 0 57 -42t-57 -42h-317v-249q141 158 319 158q135 0 227 -77q98 -81 98 -214v-664q0 -145 -89 -236t-233 -91 h-266q-56 0 -56 42t56 42h266q133 0 200 109q38 62 38 134v658q0 102 -75 160q-68 53 -173 53q-98 0 -177 -58q-45 -33 -135 -138z" glyph-name="afii10099"/>
<glyph unicode="ѓ" d="M493 84h200q56 0 56 -42t-56 -42h-485q-56 0 -56 42t56 42h200v697h-200q-56 0 -56 42q0 43 56 43h880v-419q0 -56 -43 -56q-42 0 -42 56v334h-510v-697zM803 1245l-237 -204q-23 -20 -38 -20q-42 0 -42 43q0 19 25 41l236 204q23 20 39 20q42 0 42 -43q0 -19 -25 -41z " glyph-name="afii10100"/>
<glyph unicode="є" d="M257 468h443q57 0 57 -42t-57 -42h-443q19 -155 122.5 -244t259.5 -89q227 0 383 152q21 20 37 20q40 0 40 -40q0 -84 -196 -156q-164 -60 -268 -60q-205 0 -334.5 126.5t-129.5 331.5q0 207 131.5 339t338.5 132q193 0 324 -115v28q0 57 42 57q43 0 43 -57v-190 q0 -57 -43 -57q-38 0 -42 50q-8 96 -125 153q-95 46 -204 46q-161 0 -260.5 -91.5t-118.5 -251.5z" glyph-name="afii10101"/>
<glyph unicode="ѕ" d="M892 811q0 55 42 55q43 0 43 -57v-144q0 -56 -43 -56q-38 0 -42 47q-6 60 -62 99q-81 56 -217 56q-141 0 -219 -57q-59 -43 -59 -96q0 -60 70 -100q49 -28 182 -43q178 -20 243 -43q192 -68 192 -231q0 -140 -140 -214q-113 -60 -265 -60q-199 0 -326 101q0 -68 -42 -68 t-42 56v173q0 56 42 56q43 0 43 -46q0 -100 135 -156q77 -32 187 -32q113 0 203 39q121 52 121 151q0 155 -319 188q-124 13 -180 28q-189 51 -189 204q0 119 127 184q100 51 232 51q174 0 283 -85z" glyph-name="afii10102"/>
<glyph unicode="і" d="M656 1297v-217h-124v217h124zM659 866v-782h330q57 0 57 -42t-57 -42h-744q-56 0 -56 42t56 42h330v697h-245q-57 0 -57 42q0 43 57 43h329z" glyph-name="afii10103"/>
<glyph unicode="ї" d="M660 866v-782h330q57 0 57 -42t-57 -42h-744q-51 0 -60 44q9 40 60 40h330v697h-245q-57 0 -57 42q0 43 57 43h329zM398 1146q0 -34 -24 -57.5t-58 -23.5q-33 0 -57 24t-24 57q0 34 23.5 58t57.5 24t58 -24t24 -58zM827 1146q0 -34 -24 -57.5t-58 -23.5t-57.5 23.5 t-23.5 57.5t23.5 58t57.5 24t58 -24t24 -58z" glyph-name="afii10104"/>
<glyph unicode="ј" d="M735 1297v-217h-124v217h124zM740 781h-499q-56 0 -56 43q0 42 56 42h583v-925q0 -206 -176 -296q-61 -31 -145 -31h-267q-56 0 -56 42q0 43 56 43l265 -1q107 0 173 68t66 175v840z" glyph-name="afii10105"/>
<glyph unicode="љ" d="M781 781v-290h67q324 0 324 -244q0 -247 -346 -247h-189q-70 0 -70 42t70 42h60v697h-209v-483q0 -331 -267 -331q-133 0 -160 37q-10 14 -10 55v83q0 63 42 63t42 -58v-82q55 -11 89 -11q179 0 179 244v483h-110q-70 0 -70 42q0 43 70 43h571q71 0 71 -43q0 -42 -71 -42 h-83zM781 407v-323h73q227 0 227 164q0 97 -73 133q-52 26 -161 26h-66z" glyph-name="afii10106"/>
<glyph unicode="њ" d="M578 498v283h-45q-56 0 -56 42q0 43 56 43h242q57 0 57 -43q0 -42 -57 -42h-112v-283h197q388 0 388 -238q0 -160 -121 -219q-84 -41 -267 -41h-330q-57 0 -57 42t57 42h48v329h-361v-329h65q56 0 56 -42t-56 -42h-244q-56 0 -56 42t56 42h95v697h-65q-56 0 -56 42 q0 43 56 43h214q56 0 56 -43q0 -42 -56 -42h-65v-283h361zM663 84h192q140 0 201 22q105 38 105 150q0 106 -110 139q-60 18 -199 18h-189v-329z" glyph-name="afii10107"/>
<glyph unicode="ћ" d="M339 1071h317q57 0 57 -42t-57 -42h-317v-249q141 158 319 158q135 0 227 -77q98 -81 98 -214v-521h95q56 0 56 -42t-56 -42h-274q-56 0 -56 42t56 42h95v515q0 102 -75 160q-68 53 -173 53q-98 0 -177 -58q-45 -33 -135 -138v-532h94q57 0 57 -42t-57 -42h-273 q-56 0 -56 42t56 42h94v903h-135q-57 0 -57 42t57 42h135v99h-112q-57 0 -57 42q0 43 57 43h197v-184z" glyph-name="afii10108"/>
<glyph unicode="ќ" d="M1014 781q-84 0 -133 -38q-20 -16 -96 -108q-106 -129 -160 -163q74 -19 127 -71q29 -28 92 -118l140 -199h118q70 0 70 -42t-70 -42h-118q-51 0 -68 26q-2 5 -10 16l-142 210q-65 96 -137 133.5t-188 37.5h-62v-339h102q70 0 70 -42t-70 -42h-289q-70 0 -70 42t70 42 h102v697h-102q-70 0 -70 42q0 43 70 43h289q70 0 70 -43q0 -42 -70 -42h-102v-274h62q86 0 137 33q36 23 101 102q111 135 143 161q78 63 196 63q47 0 63 -11q19 -14 19 -60v-115q0 -60 -43 -60q-41 0 -41 53v108zM803 1245l-237 -204q-23 -20 -38 -20q-42 0 -42 43 q0 19 25 41l236 204q23 20 39 20q42 0 42 -43q0 -19 -25 -41z" glyph-name="afii10109"/>
<glyph unicode="ў" d="M276 781l355 -644l352 644h-74q-70 0 -70 42q0 43 70 43h215q70 0 70 -43q0 -42 -70 -42h-47l-486 -889q-108 -198 -244 -198q-119 0 -153 36q-14 15 -14 59v116q0 68 42 68t42 -63v-123q37 -9 69 -9q70 0 114 45q26 26 70 107l64 117l-401 734h-50q-70 0 -70 42 q0 43 70 43h223q70 0 70 -43q0 -42 -70 -42h-77zM372 1258q37 0 42 -48q7 -70 79 -111q62 -36 138 -36q78 0 138 35q70 40 78 112q5 48 42 48q43 0 43 -46q0 -109 -100 -176q-87 -58 -201 -58t-201 58q-100 67 -100 176q0 46 42 46z" glyph-name="afii10110"/>
<glyph unicode="џ" d="M657 0v-219q0 -67 -41 -67q-44 0 -44 64v222h-409q-56 0 -56 42t56 42h95v697h-65q-56 0 -56 42q0 43 56 43h214q56 0 56 -43q0 -42 -56 -42h-65v-697h545v697h-64q-57 0 -57 42q0 43 57 43h213q56 0 56 -43q0 -42 -56 -42h-65v-697h95q56 0 56 -42t-56 -42h-409z" glyph-name="afii10193"/>
<glyph unicode="Ґ" d="M1026 1170v213q0 56 43 56q42 0 42 -56v-297h-643v-1002h200q56 0 56 -42t-56 -42h-485q-56 0 -56 42t56 42h200v1002h-200q-56 0 -56 42t56 42h843z" glyph-name="afii10050"/>
<glyph unicode="ґ" d="M1003 866v213q0 56 42 56q43 0 43 -56v-298h-595v-697h200q56 0 56 -42t-56 -42h-485q-56 0 -56 42t56 42h200v697h-200q-56 0 -56 42q0 43 56 43h795z" glyph-name="afii10098"/>
</font>
</defs>
</svg>
